<svg width="21" height="22" viewBox="0 0 21 22" fill="none" xmlns="http://www.w3.org/2000/svg">
<path d="M10.5 13.2C10.1694 13.2 9.89256 13.0944 9.66933 12.8832C9.44533 12.6727 9.33333 12.4117 9.33333 12.1C9.33333 11.7883 9.44533 11.5269 9.66933 11.3157C9.89256 11.1052 10.1694 11 10.5 11C10.8306 11 11.1078 11.1052 11.3318 11.3157C11.5551 11.5269 11.6667 11.7883 11.6667 12.1C11.6667 12.4117 11.5551 12.6727 11.3318 12.8832C11.1078 13.0944 10.8306 13.2 10.5 13.2ZM5.83333 13.2C5.50278 13.2 5.2255 13.0944 5.0015 12.8832C4.77828 12.6727 4.66667 12.4117 4.66667 12.1C4.66667 11.7883 4.77828 11.5269 5.0015 11.3157C5.2255 11.1052 5.50278 11 5.83333 11C6.16389 11 6.44117 11.1052 6.66517 11.3157C6.88839 11.5269 7 11.7883 7 12.1C7 12.4117 6.88839 12.6727 6.66517 12.8832C6.44117 13.0944 6.16389 13.2 5.83333 13.2ZM15.1667 13.2C14.8361 13.2 14.5592 13.0944 14.336 12.8832C14.112 12.6727 14 12.4117 14 12.1C14 11.7883 14.112 11.5269 14.336 11.3157C14.5592 11.1052 14.8361 11 15.1667 11C15.4972 11 15.7741 11.1052 15.9973 11.3157C16.2213 11.5269 16.3333 11.7883 16.3333 12.1C16.3333 12.4117 16.2213 12.6727 15.9973 12.8832C15.7741 13.0944 15.4972 13.2 15.1667 13.2ZM10.5 17.6C10.1694 17.6 9.89256 17.4944 9.66933 17.2832C9.44533 17.0727 9.33333 16.8117 9.33333 16.5C9.33333 16.1883 9.44533 15.9273 9.66933 15.7168C9.89256 15.5056 10.1694 15.4 10.5 15.4C10.8306 15.4 11.1078 15.5056 11.3318 15.7168C11.5551 15.9273 11.6667 16.1883 11.6667 16.5C11.6667 16.8117 11.5551 17.0727 11.3318 17.2832C11.1078 17.4944 10.8306 17.6 10.5 17.6ZM5.83333 17.6C5.50278 17.6 5.2255 17.4944 5.0015 17.2832C4.77828 17.0727 4.66667 16.8117 4.66667 16.5C4.66667 16.1883 4.77828 15.9273 5.0015 15.7168C5.2255 15.5056 5.50278 15.4 5.83333 15.4C6.16389 15.4 6.44117 15.5056 6.66517 15.7168C6.88839 15.9273 7 16.1883 7 16.5C7 16.8117 6.88839 17.0727 6.66517 17.2832C6.44117 17.4944 6.16389 17.6 5.83333 17.6ZM15.1667 17.6C14.8361 17.6 14.5592 17.4944 14.336 17.2832C14.112 17.0727 14 16.8117 14 16.5C14 16.1883 14.112 15.9273 14.336 15.7168C14.5592 15.5056 14.8361 15.4 15.1667 15.4C15.4972 15.4 15.7741 15.5056 15.9973 15.7168C16.2213 15.9273 16.3333 16.1883 16.3333 16.5C16.3333 16.8117 16.2213 17.0727 15.9973 17.2832C15.7741 17.4944 15.4972 17.6 15.1667 17.6ZM2.33333 22C1.69167 22 1.14217 21.7848 0.684833 21.3543C0.228278 20.9231 0 20.405 0 19.8V4.4C0 3.795 0.228278 3.27727 0.684833 2.8468C1.14217 2.4156 1.69167 2.2 2.33333 2.2H3.5V0H5.83333V2.2H15.1667V0H17.5V2.2H18.6667C19.3083 2.2 19.8578 2.4156 20.3152 2.8468C20.7717 3.27727 21 3.795 21 4.4V19.8C21 20.405 20.7717 20.9231 20.3152 21.3543C19.8578 21.7848 19.3083 22 18.6667 22H2.33333ZM2.33333 19.8H18.6667V8.8H2.33333V19.8Z" fill="#AF253E"/>
</svg>
