<?xml version="1.0" encoding="UTF-8"?><svg id="Layer_1" xmlns="http://www.w3.org/2000/svg" width="166.71" height="167.61" viewBox="0 0 166.71 167.61"><defs><style>.cls-1{fill:#f5c8dc;}.cls-2{fill:#fff;}.cls-3{fill:#fdfbfe;}.cls-4{fill:#af253e;}</style></defs><circle class="cls-4" cx="83.71" cy="83.23" r="80"/><g><path class="cls-3" d="M26.37,74.35l.03-2.51c.78-.08,1.38-.55,1.55-1.29,.17-.77-.2-1.37-.93-1.66l-3.22,4.87c-.24-.02-.57-.08-.89-.15-2.23-.5-3.71-2.58-3.18-4.91,.46-2.05,2.23-3.23,4-3.21l-.03,2.51c-.77,0-1.4,.42-1.57,1.18-.19,.82,.19,1.48,.79,1.71l3.19-4.8c.22,0,.75,.07,1.17,.17,2.25,.51,3.56,2.61,3.03,4.96-.47,2.08-2.3,3.12-3.93,3.15Z"/><path class="cls-3" d="M36.05,55.14l-1.26,2.79-1.34-.03-1.98,4.37,.92,.95-1.25,2.76-7.59-8.39,1.12-2.47h11.39Zm-8.71,2.7l2.33,2.52,1.12-2.48-3.45-.04Z"/><path class="cls-3" d="M37.13,53.65l-8.28-6.26,1.6-2.12,3.12,2.36,1.02-1.35-1.95-3.89,1.98-2.62,2.43,5.35,5.95,.77-2.09,2.77-4.24-.82-1.03,1.37,3.09,2.34-1.6,2.12Z"/><path class="cls-3" d="M37.35,36.91l2.01-1.74,4.33,4.99c.45,.52,1.46,.83,2.6-.16,1.04-.91,1.03-1.97,.52-2.55l-4.33-5,1.98-1.71,4.24,4.89c1.53,1.76,1.21,4.37-.86,6.16-2.5,2.17-4.69,1.8-6.25,0l-4.24-4.89Z"/><path class="cls-3" d="M53.59,37.06l-5.07-9.05,3.83-2.15c1.67-.94,3.89-.4,4.92,1.43,.74,1.32,.53,2.75-.29,3.77l3.76,1.99-2.79,1.57-3.22-1.76-.35,.2,1.52,2.71-2.29,1.29Zm-.46-6.2l1.41-.79c.49-.27,.69-.96,.4-1.47-.3-.54-.96-.73-1.48-.44l-1.41,.79,1.07,1.91Z"/><path class="cls-3" d="M72.99,28.96l-2.93,.91-.87-1.02-4.58,1.42-.09,1.32-2.9,.9,1.22-11.25,2.58-.8,7.56,8.51Zm-7.79-4.72l-.34,3.41,2.6-.81-2.26-2.6Z"/><path class="cls-3" d="M79.78,28.26l-.06-10.38,8.25-.05v2.57s-5.57,.03-5.57,.03v1.4s4.33-.02,4.33-.02v2.58s-4.31,.03-4.31,.03l.02,3.83h-2.66Z"/><path class="cls-3" d="M89.93,28.49l1.8-10.22,7.11,1.25-.45,2.53-4.53-.8-.24,1.33,3.26,.58-.44,2.51-3.26-.57-.23,1.32,4.53,.8-.45,2.53-7.11-1.25Z"/><path class="cls-3" d="M99.76,27.43l2.49,.36c-.01,.79,.65,1.55,1.42,1.84,.83,.31,1.75,.2,2.15-.48l-5.13-4.2c.07-.27,.16-.56,.27-.86,.8-2.15,3.22-3.27,5.69-2.35,2.17,.81,3.25,2.77,3.05,4.54l-2.47-.4c.08-.77-.52-1.6-1.39-1.93-.86-.32-1.82-.11-2.13,.45l5.06,4.16c-.02,.22-.16,.74-.31,1.15-.8,2.16-3.18,3.14-5.66,2.21-2.22-.82-3.19-2.85-3.05-4.49Z"/><path class="cls-3" d="M111.39,35.69l4.11-6.65-3.23-2,1.35-2.18,8.78,5.43-1.35,2.18-3.27-2.02-4.11,6.65-2.28-1.41Z"/><path class="cls-3" d="M118.1,40.24l1.72-1.95,.97,.85,3.43-3.89-.97-.86,1.72-1.95,3.93,3.47-1.72,1.95-.97-.86-3.43,3.89,.97,.85-1.72,1.95-3.93-3.47Z"/><path class="cls-3" d="M126.18,48.27l5.15-10.25,1.86,2.36-3.56,6.86,7.48-1.86,1.85,2.35-11.18,2.57-1.6-2.03Z"/><path class="cls-3" d="M135.66,64.23l-1.36-2.75,.87-1.02-2.12-4.3-1.32,.11-1.34-2.72,11.3-.55,1.2,2.43-7.23,8.79Zm3.45-8.44l-3.42,.2,1.2,2.44,2.22-2.64Z"/><path class="cls-3" d="M136.07,66.08l10.05-2.6,.67,2.58-7.91,2.05,.57,2.21,2.86-.74,.62,2.41-5,1.29-1.86-7.2Z"/><path class="cls-3" d="M143.76,80.22c1.45-.01,2.58,1.08,2.59,2.5,.01,1.39-1.1,2.52-2.5,2.53-1.4,.01-2.53-1.1-2.54-2.48-.01-1.38,1.1-2.53,2.45-2.54Z"/><path class="cls-3" d="M140.89,93.05l-.07,2.51c-.78,.06-1.39,.53-1.57,1.27-.19,.77,.18,1.37,.9,1.68l3.3-4.82c.23,.03,.57,.09,.89,.17,2.22,.54,3.66,2.64,3.1,4.97-.5,2.04-2.28,3.19-4.05,3.14l.07-2.51c.77,0,1.41-.39,1.59-1.15,.2-.82-.17-1.48-.77-1.72l-3.27,4.74c-.22,0-.75-.09-1.17-.19-2.24-.55-3.51-2.67-2.94-5.01,.51-2.07,2.35-3.08,3.99-3.08Z"/><path class="cls-3" d="M130.89,112.1l1.31-2.77,1.34,.05,2.05-4.33-.91-.96,1.3-2.74,7.46,8.52-1.16,2.45-11.39-.21Zm8.76-2.54l-2.28-2.56-1.17,2.46,3.45,.1Z"/><path class="cls-3" d="M129.77,113.59l8.18,6.4-1.64,2.1-3.08-2.41-1.04,1.34,1.89,3.93-2.02,2.59-2.34-5.39-5.94-.87,2.14-2.73,4.22,.89,1.05-1.35-3.05-2.39,1.64-2.1Z"/><path class="cls-3" d="M129.28,130.33l-2.04,1.71-4.25-5.07c-.44-.53-1.45-.86-2.61,.11-1.06,.89-1.07,1.95-.57,2.55l4.25,5.07-2,1.68-4.16-4.96c-1.5-1.79-1.14-4.39,.96-6.15,2.54-2.13,4.73-1.73,6.26,.1l4.16,4.96Z"/><path class="cls-3" d="M113.04,129.9l4.93,9.13-3.86,2.08c-1.68,.91-3.9,.34-4.9-1.51-.72-1.33-.48-2.76,.36-3.76l-3.73-2.06,2.82-1.52,3.19,1.81,.36-.19-1.48-2.74,2.31-1.25Zm.36,6.2l-1.42,.77c-.49,.27-.71,.95-.43,1.47,.29,.55,.95,.74,1.47,.46l1.42-.77-1.04-1.93Z"/><path class="cls-3" d="M93.51,137.66l2.94-.86,.85,1.03,4.6-1.35,.12-1.32,2.91-.86-1.41,11.23-2.6,.76-7.42-8.64Zm7.72,4.86l.4-3.41-2.61,.77,2.22,2.64Z"/><path class="cls-3" d="M86.73,138.25l-.11,10.38-8.25-.09,.03-2.57,5.59,.06v-1.4s-4.31-.05-4.31-.05l.03-2.58,4.33,.05,.04-3.83,2.66,.03Z"/><path class="cls-3" d="M76.54,137.85l-1.97,10.2-7.09-1.38,.49-2.52,4.52,.88,.26-1.33-3.26-.63,.49-2.51,3.25,.63,.26-1.31-4.53-.88,.49-2.52,7.09,1.37Z"/><path class="cls-3" d="M66.7,138.74l-2.48-.4c.03-.79-.62-1.56-1.39-1.86-.83-.32-1.75-.23-2.16,.44l5.06,4.28c-.07,.27-.17,.55-.29,.86-.83,2.13-3.28,3.21-5.73,2.25-2.16-.84-3.21-2.82-2.97-4.58l2.47,.45c-.1,.76,.49,1.61,1.36,1.95,.86,.34,1.82,.14,2.13-.42l-4.99-4.24c.02-.22,.17-.74,.33-1.14,.84-2.14,3.23-3.08,5.69-2.12,2.2,.86,3.14,2.9,2.97,4.54Z"/><path class="cls-3" d="M55.21,130.28l-4.22,6.57,3.19,2.05-1.39,2.16-8.68-5.57,1.39-2.16,3.23,2.08,4.22-6.57,2.25,1.45Z"/><path class="cls-3" d="M48.6,125.63l-1.75,1.92-.96-.87-3.49,3.83,.95,.87-1.75,1.92-3.88-3.54,1.75-1.92,.95,.87,3.49-3.83-.95-.87,1.75-1.92,3.88,3.54Z"/><path class="cls-3" d="M40.64,117.45l-5.32,10.15-1.82-2.39,3.67-6.79-7.51,1.74-1.81-2.38,11.22-2.38,1.56,2.06Z"/><path class="cls-3" d="M31.44,101.35l1.31,2.77-.88,1,2.05,4.33,1.32-.09,1.3,2.74-11.31,.36-1.16-2.45,7.38-8.67Zm-3.59,8.38l3.43-.14-1.16-2.46-2.26,2.6Z"/><path class="cls-3" d="M31.06,99.48l-10.09,2.43-.62-2.59,7.94-1.92-.54-2.22-2.87,.69-.58-2.42,5.02-1.21,1.75,7.23Z"/><path class="cls-3" d="M23.62,85.19c-1.45-.01-2.56-1.13-2.54-2.54,.01-1.38,1.14-2.49,2.54-2.48,1.4,.01,2.51,1.14,2.5,2.53-.01,1.38-1.14,2.51-2.5,2.5Z"/></g><path class="cls-1" d="M86.75,54.52c-1.73,.39-1.78,5.27-3.05,5.27s-1.32-4.89-3.05-5.27c-2.23-.5-7.5,6.5-7.24,14.01,.23,6.51,4.66,14.66,10.29,14.66,5.63,0,10.06-8.15,10.29-14.66,.26-7.51-5.01-14.51-7.24-14.01Z"/><path class="cls-1" d="M55.5,72.8c-.17,1.76,4.47,3.32,4.08,4.53s-5.06-.26-5.96,1.27c-1.17,1.97,3.86,9.14,11.09,11.21,6.26,1.8,15.38,.1,17.12-5.25s-4.65-12.08-10.77-14.31c-7.06-2.57-15.35,.28-15.56,2.56Z"/><path class="cls-1" d="M63.23,108.17c1.62,.7,4.54-3.22,5.56-2.48s-1.81,4.73-.64,6.06c1.51,1.72,9.89-.85,14.09-7.08,3.64-5.4,4.85-14.6,.3-17.91s-12.93,.68-16.94,5.82c-4.63,5.92-4.48,14.68-2.38,15.59Z"/><path class="cls-1" d="M97.66,112.32c1.32-1.18-1.01-5.47,.1-6.09s3.53,3.63,5.23,3.13c2.2-.65,3.4-9.33-.49-15.76-3.36-5.58-11.2-10.55-16.12-7.81s-4.82,12.01-1.86,17.81c3.42,6.69,11.43,10.24,13.14,8.72Z"/><path class="cls-1" d="M113.79,78.59c-.9-1.52-5.57-.06-5.96-1.27s4.24-2.77,4.08-4.53c-.21-2.28-8.5-5.13-15.56-2.56-6.12,2.23-12.51,8.96-10.77,14.31s10.86,7.05,17.12,5.25c7.22-2.07,12.25-9.24,11.09-11.21Z"/><circle class="cls-2" cx="83.71" cy="85.16" r="4.06"/></svg>