<?xml version="1.0" encoding="UTF-8"?><svg id="Layer_1" xmlns="http://www.w3.org/2000/svg" width="166.71" height="167.61" viewBox="0 0 166.71 167.61"><defs><style>.cls-1{fill:#f5c8dc;}.cls-2{fill:#fff;}</style></defs><path class="cls-1" d="M91.45,4.89c-4.59,1.03-4.72,14.02-8.1,14.02s-3.51-13-8.1-14.02c-5.94-1.33-19.95,17.28-19.25,37.24,.61,17.31,12.38,38.98,27.35,38.98,14.97,0,26.74-21.67,27.35-38.98,.7-19.97-13.31-38.57-19.25-37.24Z"/><path class="cls-1" d="M8.37,53.49c-.44,4.68,11.88,8.82,10.84,12.03-1.04,3.21-13.45-.68-15.84,3.37-3.1,5.24,10.27,24.31,29.47,29.82,16.65,4.77,40.9,.27,45.53-13.96,4.63-14.23-12.35-32.13-28.62-38.05-18.77-6.84-40.8,.74-41.37,6.8Z"/><path class="cls-1" d="M28.91,147.52c4.31,1.87,12.06-8.57,14.79-6.59,2.73,1.99-4.8,12.58-1.69,16.11,4.02,4.57,26.29-2.25,37.46-18.82,9.68-14.36,12.9-38.81,.79-47.61-12.11-8.8-34.37,1.82-45.04,15.46-12.3,15.74-11.91,39.03-6.32,41.45Z"/><path class="cls-1" d="M120.45,158.57c3.51-3.13-2.7-14.55,.25-16.19s9.39,9.65,13.89,8.32c5.84-1.73,9.03-24.8-1.29-41.91-8.95-14.83-29.77-28.04-42.85-20.76s-12.83,31.94-4.94,47.36c9.1,17.79,30.39,27.23,34.93,23.18Z"/><path class="cls-1" d="M163.35,68.89c-2.39-4.05-14.8-.15-15.84-3.37-1.04-3.21,11.28-7.35,10.84-12.03-.57-6.06-22.6-13.63-41.37-6.8-16.27,5.92-33.25,23.82-28.62,38.05,4.63,14.23,28.88,18.73,45.53,13.96,19.21-5.51,32.57-24.58,29.47-29.82Z"/><circle class="cls-2" cx="83.35" cy="86.37" r="10.79"/></svg>