<?xml version="1.0" encoding="UTF-8"?><svg id="Layer_2" xmlns="http://www.w3.org/2000/svg" width="1280" height="720" viewBox="0 0 1280 720"><defs><style>.cls-1{fill:#f5c8dc;}</style></defs><path class="cls-1" d="M597.91,363.05c-7.53,3.02-15.35,5.62-23.39,7.78,8.28,8.85,15.57,18.34,21.4,28.04,36.68,60.81,25.31,142.81,4.59,148.96-16.03,4.73-38.92-35.4-49.4-29.57-10.48,5.83,11.59,46.45-.89,57.54-16.14,14.39-91.8-19.16-124.15-82.39-2.63-5.12-5.01-10.56-7.14-16.17-4.12,9.42-8.92,18.27-14.32,26.27-39.7,58.86-118.85,83.1-133.17,66.89-11.02-12.55,15.74-50.18,6.04-57.26-9.74-7.04-37.25,30.03-52.6,23.42-19.83-8.6-21.25-91.34,22.46-147.32,5.69-7.25,12.3-14.29,19.55-20.83-9.74-1.03-19.19-2.84-28.04-5.37-68.28-19.58-115.79-87.36-104.78-105.99,8.53-14.36,52.6-.53,56.3-11.94,3.73-11.44-40.06-26.16-38.49-42.79,2.03-21.54,80.29-48.44,147.04-24.17,8.64,3.16,17.34,7.25,25.84,12.12-2.03-9.56-3.23-19.12-3.55-28.29-2.49-70.98,47.31-137.12,68.42-132.39,16.31,3.66,16.78,49.87,28.75,49.87s12.47-46.2,28.79-49.87c21.11-4.73,70.91,61.42,68.42,132.39-.28,7.85-1.21,15.99-2.7,24.17,8.25-3.2,16.63-5.9,24.99-8,68.88-17.27,145.15,3.91,147.04,24.17,1.56,16.63-42.22,31.35-38.49,42.79,3.7,11.41,47.77-2.42,56.3,11.94,10.34,17.52-38.85,79.54-104.78,105.99Z"/><path class="cls-1" d="M1013.76,434.12c-9.49,3.81-19.35,7.08-29.47,9.81,10.44,11.15,19.62,23.11,26.96,35.34,46.22,76.63,31.89,179.96,5.78,187.71-20.2,5.96-49.04-44.61-62.26-37.26-13.21,7.35,14.6,58.54-1.12,72.51-20.33,18.14-115.69-24.14-156.45-103.82-3.31-6.45-6.32-13.3-9-20.38-5.2,11.87-11.24,23.02-18.05,33.1-50.03,74.17-149.77,104.72-167.82,84.29-13.89-15.81,19.84-63.24,7.61-72.16-12.27-8.87-46.94,37.85-66.29,29.52-24.99-10.84-26.78-115.11,28.31-185.65,7.17-9.14,15.5-18.01,24.63-26.25-12.27-1.3-24.19-3.58-35.34-6.76-86.04-24.68-145.92-110.09-132.04-133.56,10.75-18.09,66.29-.67,70.95-15.05,4.7-14.42-50.48-32.96-48.51-53.93,2.55-27.14,101.18-61.05,185.29-30.46,10.88,3.99,21.86,9.14,32.56,15.27-2.55-12.05-4.08-24.1-4.48-35.65-3.14-89.44,59.61-172.8,86.22-166.84,20.56,4.61,21.14,62.84,36.23,62.84s15.72-58.23,36.28-62.84c26.6-5.96,89.35,77.4,86.22,166.84-.36,9.9-1.52,20.16-3.4,30.46,10.39-4.03,20.96-7.43,31.49-10.08,86.8-21.77,182.92,4.93,185.29,30.46,1.97,20.96-53.21,39.5-48.51,53.93,4.66,14.38,60.2-3.05,70.95,15.05,13.03,22.08-48.96,100.24-132.04,133.56Z"/></svg>