<?xml version="1.0" encoding="UTF-8"?><svg id="Layer_2" xmlns="http://www.w3.org/2000/svg" width="1280" height="720" viewBox="0 0 1280 720"><defs><style>.cls-1{fill:#f5c8dc;}</style></defs><path class="cls-1" d="M704.16,341.1c-2.12,.85-4.32,1.58-6.58,2.19,2.33,2.49,4.38,5.16,6.02,7.89,10.32,17.11,7.12,40.18,1.29,41.91-4.51,1.33-10.95-9.96-13.9-8.32-2.95,1.64,3.26,13.07-.25,16.19-4.54,4.05-25.83-5.39-34.93-23.18-.74-1.44-1.41-2.97-2.01-4.55-1.16,2.65-2.51,5.14-4.03,7.39-11.17,16.56-33.44,23.38-37.47,18.82-3.1-3.53,4.43-14.12,1.7-16.11-2.74-1.98-10.48,8.45-14.8,6.59-5.58-2.42-5.98-25.7,6.32-41.45,1.6-2.04,3.46-4.02,5.5-5.86-2.74-.29-5.4-.8-7.89-1.51-19.21-5.51-32.58-24.58-29.48-29.82,2.4-4.04,14.8-.15,15.84-3.36,1.05-3.22-11.27-7.36-10.83-12.04,.57-6.06,22.59-13.63,41.37-6.8,2.43,.89,4.88,2.04,7.27,3.41-.57-2.69-.91-5.38-1-7.96-.7-19.97,13.31-38.58,19.25-37.25,4.59,1.03,4.72,14.03,8.09,14.03s3.51-13,8.1-14.03c5.94-1.33,19.95,17.28,19.25,37.25-.08,2.21-.34,4.5-.76,6.8,2.32-.9,4.68-1.66,7.03-2.25,19.38-4.86,40.84,1.1,41.37,6.8,.44,4.68-11.88,8.82-10.83,12.04,1.04,3.21,13.44-.68,15.84,3.36,2.91,4.93-10.93,22.38-29.48,29.82Z"/><path class="cls-1" d="M639.16,398.1c-2.12,.85-4.32,1.58-6.58,2.19,2.33,2.49,4.38,5.16,6.02,7.89,10.32,17.11,7.12,40.18,1.29,41.91-4.51,1.33-10.95-9.96-13.9-8.32-2.95,1.64,3.26,13.07-.25,16.19-4.54,4.05-25.83-5.39-34.93-23.18-.74-1.44-1.41-2.97-2.01-4.55-1.16,2.65-2.51,5.14-4.03,7.39-11.17,16.56-33.44,23.38-37.47,18.82-3.1-3.53,4.43-14.12,1.7-16.11-2.74-1.98-10.48,8.45-14.8,6.59-5.58-2.42-5.98-25.7,6.32-41.45,1.6-2.04,3.46-4.02,5.5-5.86-2.74-.29-5.4-.8-7.89-1.51-19.21-5.51-32.58-24.58-29.48-29.82,2.4-4.04,14.8-.15,15.84-3.36,1.05-3.22-11.27-7.36-10.83-12.04,.57-6.06,22.59-13.63,41.37-6.8,2.43,.89,4.88,2.04,7.27,3.41-.57-2.69-.91-5.38-1-7.96-.7-19.97,13.31-38.58,19.25-37.25,4.59,1.03,4.72,14.03,8.09,14.03s3.51-13,8.1-14.03c5.94-1.33,19.95,17.28,19.25,37.25-.08,2.21-.34,4.5-.76,6.8,2.32-.9,4.68-1.66,7.03-2.25,19.38-4.86,40.84,1.1,41.37,6.8,.44,4.68-11.88,8.82-10.83,12.04,1.04,3.21,13.44-.68,15.84,3.36,2.91,4.93-10.93,22.38-29.48,29.82Z"/><path class="cls-1" d="M613.16,362.1c-2.12,.85-4.32,1.58-6.58,2.19,2.33,2.49,4.38,5.16,6.02,7.89,10.32,17.11,7.12,40.18,1.29,41.91-4.51,1.33-10.95-9.96-13.9-8.32-2.95,1.64,3.26,13.07-.25,16.19-4.54,4.05-25.83-5.39-34.93-23.18-.74-1.44-1.41-2.97-2.01-4.55-1.16,2.65-2.51,5.14-4.03,7.39-11.17,16.56-33.44,23.38-37.47,18.82-3.1-3.53,4.43-14.12,1.7-16.11-2.74-1.98-10.48,8.45-14.8,6.59-5.58-2.42-5.98-25.7,6.32-41.45,1.6-2.04,3.46-4.02,5.5-5.86-2.74-.29-5.4-.8-7.89-1.51-19.21-5.51-32.58-24.58-29.48-29.82,2.4-4.04,14.8-.15,15.84-3.36,1.05-3.22-11.27-7.36-10.83-12.04,.57-6.06,22.59-13.63,41.37-6.8,2.43,.89,4.88,2.04,7.27,3.41-.57-2.69-.91-5.38-1-7.96-.7-19.97,13.31-38.58,19.25-37.25,4.59,1.03,4.72,14.03,8.09,14.03s3.51-13,8.1-14.03c5.94-1.33,19.95,17.28,19.25,37.25-.08,2.21-.34,4.5-.76,6.8,2.32-.9,4.68-1.66,7.03-2.25,19.38-4.86,40.84,1.1,41.37,6.8,.44,4.68-11.88,8.82-10.83,12.04,1.04,3.21,13.44-.68,15.84,3.36,2.91,4.93-10.93,22.38-29.48,29.82Z"/><path class="cls-1" d="M445.16,341.1c-2.12,.85-4.32,1.58-6.58,2.19,2.33,2.49,4.38,5.16,6.02,7.89,10.32,17.11,7.12,40.18,1.29,41.91-4.51,1.33-10.95-9.96-13.9-8.32-2.95,1.64,3.26,13.07-.25,16.19-4.54,4.05-25.83-5.39-34.93-23.18-.74-1.44-1.41-2.97-2.01-4.55-1.16,2.65-2.51,5.14-4.03,7.39-11.17,16.56-33.44,23.38-37.47,18.82-3.1-3.53,4.43-14.12,1.7-16.11-2.74-1.98-10.48,8.45-14.8,6.59-5.58-2.42-5.98-25.7,6.32-41.45,1.6-2.04,3.46-4.02,5.5-5.86-2.74-.29-5.4-.8-7.89-1.51-19.21-5.51-32.58-24.58-29.48-29.82,2.4-4.04,14.8-.15,15.84-3.36,1.05-3.22-11.27-7.36-10.83-12.04,.57-6.06,22.59-13.63,41.37-6.8,2.43,.89,4.88,2.04,7.27,3.41-.57-2.69-.91-5.38-1-7.96-.7-19.97,13.31-38.58,19.25-37.25,4.59,1.03,4.72,14.03,8.09,14.03s3.51-13,8.1-14.03c5.94-1.33,19.95,17.28,19.25,37.25-.08,2.21-.34,4.5-.76,6.8,2.32-.9,4.68-1.66,7.03-2.25,19.38-4.86,40.84,1.1,41.37,6.8,.44,4.68-11.88,8.82-10.83,12.04,1.04,3.21,13.44-.68,15.84,3.36,2.91,4.93-10.93,22.38-29.48,29.82Z"/><path class="cls-1" d="M530.16,398.1c-2.12,.85-4.32,1.58-6.58,2.19,2.33,2.49,4.38,5.16,6.02,7.89,10.32,17.11,7.12,40.18,1.29,41.91-4.51,1.33-10.95-9.96-13.9-8.32-2.95,1.64,3.26,13.07-.25,16.19-4.54,4.05-25.83-5.39-34.93-23.18-.74-1.44-1.41-2.97-2.01-4.55-1.16,2.65-2.51,5.14-4.03,7.39-11.17,16.56-33.44,23.38-37.47,18.82-3.1-3.53,4.43-14.12,1.7-16.11-2.74-1.98-10.48,8.45-14.8,6.59-5.58-2.42-5.98-25.7,6.32-41.45,1.6-2.04,3.46-4.02,5.5-5.86-2.74-.29-5.4-.8-7.89-1.51-19.21-5.51-32.58-24.58-29.48-29.82,2.4-4.04,14.8-.15,15.84-3.36,1.05-3.22-11.27-7.36-10.83-12.04,.57-6.06,22.59-13.63,41.37-6.8,2.43,.89,4.88,2.04,7.27,3.41-.57-2.69-.91-5.38-1-7.96-.7-19.97,13.31-38.58,19.25-37.25,4.59,1.03,4.72,14.03,8.09,14.03s3.51-13,8.1-14.03c5.94-1.33,19.95,17.28,19.25,37.25-.08,2.21-.34,4.5-.76,6.8,2.32-.9,4.68-1.66,7.03-2.25,19.38-4.86,40.84,1.1,41.37,6.8,.44,4.68-11.88,8.82-10.83,12.04,1.04,3.21,13.44-.68,15.84,3.36,2.91,4.93-10.93,22.38-29.48,29.82Z"/><path class="cls-1" d="M720.16,439.1c-2.12,.85-4.32,1.58-6.58,2.19,2.33,2.49,4.38,5.16,6.02,7.89,10.32,17.11,7.12,40.18,1.29,41.91-4.51,1.33-10.95-9.96-13.9-8.32-2.95,1.64,3.26,13.07-.25,16.19-4.54,4.05-25.83-5.39-34.93-23.18-.74-1.44-1.41-2.97-2.01-4.55-1.16,2.65-2.51,5.14-4.03,7.39-11.17,16.56-33.44,23.38-37.47,18.82-3.1-3.53,4.43-14.12,1.7-16.11-2.74-1.98-10.48,8.45-14.8,6.59-5.58-2.42-5.98-25.7,6.32-41.45,1.6-2.04,3.46-4.02,5.5-5.86-2.74-.29-5.4-.8-7.89-1.51-19.21-5.51-32.58-24.58-29.48-29.82,2.4-4.04,14.8-.15,15.84-3.36,1.05-3.22-11.27-7.36-10.83-12.04,.57-6.06,22.59-13.63,41.37-6.8,2.43,.89,4.88,2.04,7.27,3.41-.57-2.69-.91-5.38-1-7.96-.7-19.97,13.31-38.58,19.25-37.25,4.59,1.03,4.72,14.03,8.09,14.03s3.51-13,8.1-14.03c5.94-1.33,19.95,17.28,19.25,37.25-.08,2.21-.34,4.5-.76,6.8,2.32-.9,4.68-1.66,7.03-2.25,19.38-4.86,40.84,1.1,41.37,6.8,.44,4.68-11.88,8.82-10.83,12.04,1.04,3.21,13.44-.68,15.84,3.36,2.91,4.93-10.93,22.38-29.48,29.82Z"/><path class="cls-1" d="M800.16,398.1c-2.12,.85-4.32,1.58-6.58,2.19,2.33,2.49,4.38,5.16,6.02,7.89,10.32,17.11,7.12,40.18,1.29,41.91-4.51,1.33-10.95-9.96-13.9-8.32-2.95,1.64,3.26,13.07-.25,16.19-4.54,4.05-25.83-5.39-34.93-23.18-.74-1.44-1.41-2.97-2.01-4.55-1.16,2.65-2.51,5.14-4.03,7.39-11.17,16.56-33.44,23.38-37.47,18.82-3.1-3.53,4.43-14.12,1.7-16.11-2.74-1.98-10.48,8.45-14.8,6.59-5.58-2.42-5.98-25.7,6.32-41.45,1.6-2.04,3.46-4.02,5.5-5.86-2.74-.29-5.4-.8-7.89-1.51-19.21-5.51-32.58-24.58-29.48-29.82,2.4-4.04,14.8-.15,15.84-3.36,1.05-3.22-11.27-7.36-10.83-12.04,.57-6.06,22.59-13.63,41.37-6.8,2.43,.89,4.88,2.04,7.27,3.41-.57-2.69-.91-5.38-1-7.96-.7-19.97,13.31-38.58,19.25-37.25,4.59,1.03,4.72,14.03,8.09,14.03s3.51-13,8.1-14.03c5.94-1.33,19.95,17.28,19.25,37.25-.08,2.21-.34,4.5-.76,6.8,2.32-.9,4.68-1.66,7.03-2.25,19.38-4.86,40.84,1.1,41.37,6.8,.44,4.68-11.88,8.82-10.83,12.04,1.04,3.21,13.44-.68,15.84,3.36,2.91,4.93-10.93,22.38-29.48,29.82Z"/><path class="cls-1" d="M910.16,428.1c-2.12,.85-4.32,1.58-6.58,2.19,2.33,2.49,4.38,5.16,6.02,7.89,10.32,17.11,7.12,40.18,1.29,41.91-4.51,1.33-10.95-9.96-13.9-8.32-2.95,1.64,3.26,13.07-.25,16.19-4.54,4.05-25.83-5.39-34.93-23.18-.74-1.44-1.41-2.97-2.01-4.55-1.16,2.65-2.51,5.14-4.03,7.39-11.17,16.56-33.44,23.38-37.47,18.82-3.1-3.53,4.43-14.12,1.7-16.11-2.74-1.98-10.48,8.45-14.8,6.59-5.58-2.42-5.98-25.7,6.32-41.45,1.6-2.04,3.46-4.02,5.5-5.86-2.74-.29-5.4-.8-7.89-1.51-19.21-5.51-32.58-24.58-29.48-29.82,2.4-4.04,14.8-.15,15.84-3.36,1.05-3.22-11.27-7.36-10.83-12.04,.57-6.06,22.59-13.63,41.37-6.8,2.43,.89,4.88,2.04,7.27,3.41-.57-2.69-.91-5.38-1-7.96-.7-19.97,13.31-38.58,19.25-37.25,4.59,1.03,4.72,14.03,8.09,14.03s3.51-13,8.1-14.03c5.94-1.33,19.95,17.28,19.25,37.25-.08,2.21-.34,4.5-.76,6.8,2.32-.9,4.68-1.66,7.03-2.25,19.38-4.86,40.84,1.1,41.37,6.8,.44,4.68-11.88,8.82-10.83,12.04,1.04,3.21,13.44-.68,15.84,3.36,2.91,4.93-10.93,22.38-29.48,29.82Z"/><path class="cls-1" d="M880.16,341.1c-2.12,.85-4.32,1.58-6.58,2.19,2.33,2.49,4.38,5.16,6.02,7.89,10.32,17.11,7.12,40.18,1.29,41.91-4.51,1.33-10.95-9.96-13.9-8.32-2.95,1.64,3.26,13.07-.25,16.19-4.54,4.05-25.83-5.39-34.93-23.18-.74-1.44-1.41-2.97-2.01-4.55-1.16,2.65-2.51,5.14-4.03,7.39-11.17,16.56-33.44,23.38-37.47,18.82-3.1-3.53,4.43-14.12,1.7-16.11-2.74-1.98-10.48,8.45-14.8,6.59-5.58-2.42-5.98-25.7,6.32-41.45,1.6-2.04,3.46-4.02,5.5-5.86-2.74-.29-5.4-.8-7.89-1.51-19.21-5.51-32.58-24.58-29.48-29.82,2.4-4.04,14.8-.15,15.84-3.36,1.05-3.22-11.27-7.36-10.83-12.04,.57-6.06,22.59-13.63,41.37-6.8,2.43,.89,4.88,2.04,7.27,3.41-.57-2.69-.91-5.38-1-7.96-.7-19.97,13.31-38.58,19.25-37.25,4.59,1.03,4.72,14.03,8.09,14.03s3.51-13,8.1-14.03c5.94-1.33,19.95,17.28,19.25,37.25-.08,2.21-.34,4.5-.76,6.8,2.32-.9,4.68-1.66,7.03-2.25,19.38-4.86,40.84,1.1,41.37,6.8,.44,4.68-11.88,8.82-10.83,12.04,1.04,3.21,13.44-.68,15.84,3.36,2.91,4.93-10.93,22.38-29.48,29.82Z"/><path class="cls-1" d="M891.16,398.1c-2.12,.85-4.32,1.58-6.58,2.19,2.33,2.49,4.38,5.16,6.02,7.89,10.32,17.11,7.12,40.18,1.29,41.91-4.51,1.33-10.95-9.96-13.9-8.32-2.95,1.64,3.26,13.07-.25,16.19-4.54,4.05-25.83-5.39-34.93-23.18-.74-1.44-1.41-2.97-2.01-4.55-1.16,2.65-2.51,5.14-4.03,7.39-11.17,16.56-33.44,23.38-37.47,18.82-3.1-3.53,4.43-14.12,1.7-16.11-2.74-1.98-10.48,8.45-14.8,6.59-5.58-2.42-5.98-25.7,6.32-41.45,1.6-2.04,3.46-4.02,5.5-5.86-2.74-.29-5.4-.8-7.89-1.51-19.21-5.51-32.58-24.58-29.48-29.82,2.4-4.04,14.8-.15,15.84-3.36,1.05-3.22-11.27-7.36-10.83-12.04,.57-6.06,22.59-13.63,41.37-6.8,2.43,.89,4.88,2.04,7.27,3.41-.57-2.69-.91-5.38-1-7.96-.7-19.97,13.31-38.58,19.25-37.25,4.59,1.03,4.72,14.03,8.09,14.03s3.51-13,8.1-14.03c5.94-1.33,19.95,17.28,19.25,37.25-.08,2.21-.34,4.5-.76,6.8,2.32-.9,4.68-1.66,7.03-2.25,19.38-4.86,40.84,1.1,41.37,6.8,.44,4.68-11.88,8.82-10.83,12.04,1.04,3.21,13.44-.68,15.84,3.36,2.91,4.93-10.93,22.38-29.48,29.82Z"/><path class="cls-1" d="M830.16,486.1c-2.12,.85-4.32,1.58-6.58,2.19,2.33,2.49,4.38,5.16,6.02,7.89,10.32,17.11,7.12,40.18,1.29,41.91-4.51,1.33-10.95-9.96-13.9-8.32-2.95,1.64,3.26,13.07-.25,16.19-4.54,4.05-25.83-5.39-34.93-23.18-.74-1.44-1.41-2.97-2.01-4.55-1.16,2.65-2.51,5.14-4.03,7.39-11.17,16.56-33.44,23.38-37.47,18.82-3.1-3.53,4.43-14.12,1.7-16.11-2.74-1.98-10.48,8.45-14.8,6.59-5.58-2.42-5.98-25.7,6.32-41.45,1.6-2.04,3.46-4.02,5.5-5.86-2.74-.29-5.4-.8-7.89-1.51-19.21-5.51-32.58-24.58-29.48-29.82,2.4-4.04,14.8-.15,15.84-3.36,1.05-3.22-11.27-7.36-10.83-12.04,.57-6.06,22.59-13.63,41.37-6.8,2.43,.89,4.88,2.04,7.27,3.41-.57-2.69-.91-5.38-1-7.96-.7-19.97,13.31-38.58,19.25-37.25,4.59,1.03,4.72,14.03,8.09,14.03s3.51-13,8.1-14.03c5.94-1.33,19.95,17.28,19.25,37.25-.08,2.21-.34,4.5-.76,6.8,2.32-.9,4.68-1.66,7.03-2.25,19.38-4.86,40.84,1.1,41.37,6.8,.44,4.68-11.88,8.82-10.83,12.04,1.04,3.21,13.44-.68,15.84,3.36,2.91,4.93-10.93,22.38-29.48,29.82Z"/><path class="cls-1" d="M610.16,472.1c-2.12,.85-4.32,1.58-6.58,2.19,2.33,2.49,4.38,5.16,6.02,7.89,10.32,17.11,7.12,40.18,1.29,41.91-4.51,1.33-10.95-9.96-13.9-8.32-2.95,1.64,3.26,13.07-.25,16.19-4.54,4.05-25.83-5.39-34.93-23.18-.74-1.44-1.41-2.97-2.01-4.55-1.16,2.65-2.51,5.14-4.03,7.39-11.17,16.56-33.44,23.38-37.47,18.82-3.1-3.53,4.43-14.12,1.7-16.11-2.74-1.98-10.48,8.45-14.8,6.59-5.58-2.42-5.98-25.7,6.32-41.45,1.6-2.04,3.46-4.02,5.5-5.86-2.74-.29-5.4-.8-7.89-1.51-19.21-5.51-32.58-24.58-29.48-29.82,2.4-4.04,14.8-.15,15.84-3.36,1.05-3.22-11.27-7.36-10.83-12.04,.57-6.06,22.59-13.63,41.37-6.8,2.43,.89,4.88,2.04,7.27,3.41-.57-2.69-.91-5.38-1-7.96-.7-19.97,13.31-38.58,19.25-37.25,4.59,1.03,4.72,14.03,8.09,14.03s3.51-13,8.1-14.03c5.94-1.33,19.95,17.28,19.25,37.25-.08,2.21-.34,4.5-.76,6.8,2.32-.9,4.68-1.66,7.03-2.25,19.38-4.86,40.84,1.1,41.37,6.8,.44,4.68-11.88,8.82-10.83,12.04,1.04,3.21,13.44-.68,15.84,3.36,2.91,4.93-10.93,22.38-29.48,29.82Z"/><path class="cls-1" d="M535.16,486.1c-2.12,.85-4.32,1.58-6.58,2.19,2.33,2.49,4.38,5.16,6.02,7.89,10.32,17.11,7.12,40.18,1.29,41.91-4.51,1.33-10.95-9.96-13.9-8.32-2.95,1.64,3.26,13.07-.25,16.19-4.54,4.05-25.83-5.39-34.93-23.18-.74-1.44-1.41-2.97-2.01-4.55-1.16,2.65-2.51,5.14-4.03,7.39-11.17,16.56-33.44,23.38-37.47,18.82-3.1-3.53,4.43-14.12,1.7-16.11-2.74-1.98-10.48,8.45-14.8,6.59-5.58-2.42-5.98-25.7,6.32-41.45,1.6-2.04,3.46-4.02,5.5-5.86-2.74-.29-5.4-.8-7.89-1.51-19.21-5.51-32.58-24.58-29.48-29.82,2.4-4.04,14.8-.15,15.84-3.36,1.05-3.22-11.27-7.36-10.83-12.04,.57-6.06,22.59-13.63,41.37-6.8,2.43,.89,4.88,2.04,7.27,3.41-.57-2.69-.91-5.38-1-7.96-.7-19.97,13.31-38.58,19.25-37.25,4.59,1.03,4.72,14.03,8.09,14.03s3.51-13,8.1-14.03c5.94-1.33,19.95,17.28,19.25,37.25-.08,2.21-.34,4.5-.76,6.8,2.32-.9,4.68-1.66,7.03-2.25,19.38-4.86,40.84,1.1,41.37,6.8,.44,4.68-11.88,8.82-10.83,12.04,1.04,3.21,13.44-.68,15.84,3.36,2.91,4.93-10.93,22.38-29.48,29.82Z"/><path class="cls-1" d="M775.16,459.1c-2.12,.85-4.32,1.58-6.58,2.19,2.33,2.49,4.38,5.16,6.02,7.89,10.32,17.11,7.12,40.18,1.29,41.91-4.51,1.33-10.95-9.96-13.9-8.32-2.95,1.64,3.26,13.07-.25,16.19-4.54,4.05-25.83-5.39-34.93-23.18-.74-1.44-1.41-2.97-2.01-4.55-1.16,2.65-2.51,5.14-4.03,7.39-11.17,16.56-33.44,23.38-37.47,18.82-3.1-3.53,4.43-14.12,1.7-16.11-2.74-1.98-10.48,8.45-14.8,6.59-5.58-2.42-5.98-25.7,6.32-41.45,1.6-2.04,3.46-4.02,5.5-5.86-2.74-.29-5.4-.8-7.89-1.51-19.21-5.51-32.58-24.58-29.48-29.82,2.4-4.04,14.8-.15,15.84-3.36,1.05-3.22-11.27-7.36-10.83-12.04,.57-6.06,22.59-13.63,41.37-6.8,2.43,.89,4.88,2.04,7.27,3.41-.57-2.69-.91-5.38-1-7.96-.7-19.97,13.31-38.58,19.25-37.25,4.59,1.03,4.72,14.03,8.09,14.03s3.51-13,8.1-14.03c5.94-1.33,19.95,17.28,19.25,37.25-.08,2.21-.34,4.5-.76,6.8,2.32-.9,4.68-1.66,7.03-2.25,19.38-4.86,40.84,1.1,41.37,6.8,.44,4.68-11.88,8.82-10.83,12.04,1.04,3.21,13.44-.68,15.84,3.36,2.91,4.93-10.93,22.38-29.48,29.82Z"/><path class="cls-1" d="M751.16,525.1c-2.12,.85-4.32,1.58-6.58,2.19,2.33,2.49,4.38,5.16,6.02,7.89,10.32,17.11,7.12,40.18,1.29,41.91-4.51,1.33-10.95-9.96-13.9-8.32-2.95,1.64,3.26,13.07-.25,16.19-4.54,4.05-25.83-5.39-34.93-23.18-.74-1.44-1.41-2.97-2.01-4.55-1.16,2.65-2.51,5.14-4.03,7.39-11.17,16.56-33.44,23.38-37.47,18.82-3.1-3.53,4.43-14.12,1.7-16.11-2.74-1.98-10.48,8.45-14.8,6.59-5.58-2.42-5.98-25.7,6.32-41.45,1.6-2.04,3.46-4.02,5.5-5.86-2.74-.29-5.4-.8-7.89-1.51-19.21-5.51-32.58-24.58-29.48-29.82,2.4-4.04,14.8-.15,15.84-3.36,1.05-3.22-11.27-7.36-10.83-12.04,.57-6.06,22.59-13.63,41.37-6.8,2.43,.89,4.88,2.04,7.27,3.41-.57-2.69-.91-5.38-1-7.96-.7-19.97,13.31-38.58,19.25-37.25,4.59,1.03,4.72,14.03,8.09,14.03s3.51-13,8.1-14.03c5.94-1.33,19.95,17.28,19.25,37.25-.08,2.21-.34,4.5-.76,6.8,2.32-.9,4.68-1.66,7.03-2.25,19.38-4.86,40.84,1.1,41.37,6.8,.44,4.68-11.88,8.82-10.83,12.04,1.04,3.21,13.44-.68,15.84,3.36,2.91,4.93-10.93,22.38-29.48,29.82Z"/><path class="cls-1" d="M496.16,464.1c-2.12,.85-4.32,1.58-6.58,2.19,2.33,2.49,4.38,5.16,6.02,7.89,10.32,17.11,7.12,40.18,1.29,41.91-4.51,1.33-10.95-9.96-13.9-8.32-2.95,1.64,3.26,13.07-.25,16.19-4.54,4.05-25.83-5.39-34.93-23.18-.74-1.44-1.41-2.97-2.01-4.55-1.16,2.65-2.51,5.14-4.03,7.39-11.17,16.56-33.44,23.38-37.47,18.82-3.1-3.53,4.43-14.12,1.7-16.11-2.74-1.98-10.48,8.45-14.8,6.59-5.58-2.42-5.98-25.7,6.32-41.45,1.6-2.04,3.46-4.02,5.5-5.86-2.74-.29-5.4-.8-7.89-1.51-19.21-5.51-32.58-24.58-29.48-29.82,2.4-4.04,14.8-.15,15.84-3.36,1.05-3.22-11.27-7.36-10.83-12.04,.57-6.06,22.59-13.63,41.37-6.8,2.43,.89,4.88,2.04,7.27,3.41-.57-2.69-.91-5.38-1-7.96-.7-19.97,13.31-38.58,19.25-37.25,4.59,1.03,4.72,14.03,8.09,14.03s3.51-13,8.1-14.03c5.94-1.33,19.95,17.28,19.25,37.25-.08,2.21-.34,4.5-.76,6.8,2.32-.9,4.68-1.66,7.03-2.25,19.38-4.86,40.84,1.1,41.37,6.8,.44,4.68-11.88,8.82-10.83,12.04,1.04,3.21,13.44-.68,15.84,3.36,2.91,4.93-10.93,22.38-29.48,29.82Z"/><path class="cls-1" d="M481.16,370.1c-2.12,.85-4.32,1.58-6.58,2.19,2.33,2.49,4.38,5.16,6.02,7.89,10.32,17.11,7.12,40.18,1.29,41.91-4.51,1.33-10.95-9.96-13.9-8.32-2.95,1.64,3.26,13.07-.25,16.19-4.54,4.05-25.83-5.39-34.93-23.18-.74-1.44-1.41-2.97-2.01-4.55-1.16,2.65-2.51,5.14-4.03,7.39-11.17,16.56-33.44,23.38-37.47,18.82-3.1-3.53,4.43-14.12,1.7-16.11-2.74-1.98-10.48,8.45-14.8,6.59-5.58-2.42-5.98-25.7,6.32-41.45,1.6-2.04,3.46-4.02,5.5-5.86-2.74-.29-5.4-.8-7.89-1.51-19.21-5.51-32.58-24.58-29.48-29.82,2.4-4.04,14.8-.15,15.84-3.36,1.05-3.22-11.27-7.36-10.83-12.04,.57-6.06,22.59-13.63,41.37-6.8,2.43,.89,4.88,2.04,7.27,3.41-.57-2.69-.91-5.38-1-7.96-.7-19.97,13.31-38.58,19.25-37.25,4.59,1.03,4.72,14.03,8.09,14.03s3.51-13,8.1-14.03c5.94-1.33,19.95,17.28,19.25,37.25-.08,2.21-.34,4.5-.76,6.8,2.32-.9,4.68-1.66,7.03-2.25,19.38-4.86,40.84,1.1,41.37,6.8,.44,4.68-11.88,8.82-10.83,12.04,1.04,3.21,13.44-.68,15.84,3.36,2.91,4.93-10.93,22.38-29.48,29.82Z"/><path class="cls-1" d="M522.16,244.1c-2.12,.85-4.32,1.58-6.58,2.19,2.33,2.49,4.38,5.16,6.02,7.89,10.32,17.11,7.12,40.18,1.29,41.91-4.51,1.33-10.95-9.96-13.9-8.32-2.95,1.64,3.26,13.07-.25,16.19-4.54,4.05-25.83-5.39-34.93-23.18-.74-1.44-1.41-2.97-2.01-4.55-1.16,2.65-2.51,5.14-4.03,7.39-11.17,16.56-33.44,23.38-37.47,18.82-3.1-3.53,4.43-14.12,1.7-16.11-2.74-1.98-10.48,8.45-14.8,6.59-5.58-2.42-5.98-25.7,6.32-41.45,1.6-2.04,3.46-4.02,5.5-5.86-2.74-.29-5.4-.8-7.89-1.51-19.21-5.51-32.58-24.58-29.48-29.82,2.4-4.04,14.8-.15,15.84-3.36,1.05-3.22-11.27-7.36-10.83-12.04,.57-6.06,22.59-13.63,41.37-6.8,2.43,.89,4.88,2.04,7.27,3.41-.57-2.69-.91-5.38-1-7.96-.7-19.97,13.31-38.58,19.25-37.25,4.59,1.03,4.72,14.03,8.09,14.03s3.51-13,8.1-14.03c5.94-1.33,19.95,17.28,19.25,37.25-.08,2.21-.34,4.5-.76,6.8,2.32-.9,4.68-1.66,7.03-2.25,19.38-4.86,40.84,1.1,41.37,6.8,.44,4.68-11.88,8.82-10.83,12.04,1.04,3.21,13.44-.68,15.84,3.36,2.91,4.93-10.93,22.38-29.48,29.82Z"/><path class="cls-1" d="M418.16,445.1c-2.12,.85-4.32,1.58-6.58,2.19,2.33,2.49,4.38,5.16,6.02,7.89,10.32,17.11,7.12,40.18,1.29,41.91-4.51,1.33-10.95-9.96-13.9-8.32-2.95,1.64,3.26,13.07-.25,16.19-4.54,4.05-25.83-5.39-34.93-23.18-.74-1.44-1.41-2.97-2.01-4.55-1.16,2.65-2.51,5.14-4.03,7.39-11.17,16.56-33.44,23.38-37.47,18.82-3.1-3.53,4.43-14.12,1.7-16.11-2.74-1.98-10.48,8.45-14.8,6.59-5.58-2.42-5.98-25.7,6.32-41.45,1.6-2.04,3.46-4.02,5.5-5.86-2.74-.29-5.4-.8-7.89-1.51-19.21-5.51-32.58-24.58-29.48-29.82,2.4-4.04,14.8-.15,15.84-3.36,1.05-3.22-11.27-7.36-10.83-12.04,.57-6.06,22.59-13.63,41.37-6.8,2.43,.89,4.88,2.04,7.27,3.41-.57-2.69-.91-5.38-1-7.96-.7-19.97,13.31-38.58,19.25-37.25,4.59,1.03,4.72,14.03,8.09,14.03s3.51-13,8.1-14.03c5.94-1.33,19.95,17.28,19.25,37.25-.08,2.21-.34,4.5-.76,6.8,2.32-.9,4.68-1.66,7.03-2.25,19.38-4.86,40.84,1.1,41.37,6.8,.44,4.68-11.88,8.82-10.83,12.04,1.04,3.21,13.44-.68,15.84,3.36,2.91,4.93-10.93,22.38-29.48,29.82Z"/><path class="cls-1" d="M351.16,274.1c-2.12,.85-4.32,1.58-6.58,2.19,2.33,2.49,4.38,5.16,6.02,7.89,10.32,17.11,7.12,40.18,1.29,41.91-4.51,1.33-10.95-9.96-13.9-8.32-2.95,1.64,3.26,13.07-.25,16.19-4.54,4.05-25.83-5.39-34.93-23.18-.74-1.44-1.41-2.97-2.01-4.55-1.16,2.65-2.51,5.14-4.03,7.39-11.17,16.56-33.44,23.38-37.47,18.82-3.1-3.53,4.43-14.12,1.7-16.11-2.74-1.98-10.48,8.45-14.8,6.59-5.58-2.42-5.98-25.7,6.32-41.45,1.6-2.04,3.46-4.02,5.5-5.86-2.74-.29-5.4-.8-7.89-1.51-19.21-5.51-32.58-24.58-29.48-29.82,2.4-4.04,14.8-.15,15.84-3.36,1.05-3.22-11.27-7.36-10.83-12.04,.57-6.06,22.59-13.63,41.37-6.8,2.43,.89,4.88,2.04,7.27,3.41-.57-2.69-.91-5.38-1-7.96-.7-19.97,13.31-38.58,19.25-37.25,4.59,1.03,4.72,14.03,8.09,14.03s3.51-13,8.1-14.03c5.94-1.33,19.95,17.28,19.25,37.25-.08,2.21-.34,4.5-.76,6.8,2.32-.9,4.68-1.66,7.03-2.25,19.38-4.86,40.84,1.1,41.37,6.8,.44,4.68-11.88,8.82-10.83,12.04,1.04,3.21,13.44-.68,15.84,3.36,2.91,4.93-10.93,22.38-29.48,29.82Z"/><path class="cls-1" d="M321.16,197.1c-2.12,.85-4.32,1.58-6.58,2.19,2.33,2.49,4.38,5.16,6.02,7.89,10.32,17.11,7.12,40.18,1.29,41.91-4.51,1.33-10.95-9.96-13.9-8.32-2.95,1.64,3.26,13.07-.25,16.19-4.54,4.05-25.83-5.39-34.93-23.18-.74-1.44-1.41-2.97-2.01-4.55-1.16,2.65-2.51,5.14-4.03,7.39-11.17,16.56-33.44,23.38-37.47,18.82-3.1-3.53,4.43-14.12,1.7-16.11-2.74-1.98-10.48,8.45-14.8,6.59-5.58-2.42-5.98-25.7,6.32-41.45,1.6-2.04,3.46-4.02,5.5-5.86-2.74-.29-5.4-.8-7.89-1.51-19.21-5.51-32.58-24.58-29.48-29.82,2.4-4.04,14.8-.15,15.84-3.36,1.05-3.22-11.27-7.36-10.83-12.04,.57-6.06,22.59-13.63,41.37-6.8,2.43,.89,4.88,2.04,7.27,3.41-.57-2.69-.91-5.38-1-7.96-.7-19.97,13.31-38.58,19.25-37.25,4.59,1.03,4.72,14.03,8.09,14.03s3.51-13,8.1-14.03c5.94-1.33,19.95,17.28,19.25,37.25-.08,2.21-.34,4.5-.76,6.8,2.32-.9,4.68-1.66,7.03-2.25,19.38-4.86,40.84,1.1,41.37,6.8,.44,4.68-11.88,8.82-10.83,12.04,1.04,3.21,13.44-.68,15.84,3.36,2.91,4.93-10.93,22.38-29.48,29.82Z"/><path class="cls-1" d="M251.16,265.1c-2.12,.85-4.32,1.58-6.58,2.19,2.33,2.49,4.38,5.16,6.02,7.89,10.32,17.11,7.12,40.18,1.29,41.91-4.51,1.33-10.95-9.96-13.9-8.32-2.95,1.64,3.26,13.07-.25,16.19-4.54,4.05-25.83-5.39-34.93-23.18-.74-1.44-1.41-2.97-2.01-4.55-1.16,2.65-2.51,5.14-4.03,7.39-11.17,16.56-33.44,23.38-37.47,18.82-3.1-3.53,4.43-14.12,1.7-16.11-2.74-1.98-10.48,8.45-14.8,6.59-5.58-2.42-5.98-25.7,6.32-41.45,1.6-2.04,3.46-4.02,5.5-5.86-2.74-.29-5.4-.8-7.89-1.51-19.21-5.51-32.58-24.58-29.48-29.82,2.4-4.04,14.8-.15,15.84-3.36,1.05-3.22-11.27-7.36-10.83-12.04,.57-6.06,22.59-13.63,41.37-6.8,2.43,.89,4.88,2.04,7.27,3.41-.57-2.69-.91-5.38-1-7.96-.7-19.97,13.31-38.58,19.25-37.25,4.59,1.03,4.72,14.03,8.09,14.03s3.51-13,8.1-14.03c5.94-1.33,19.95,17.28,19.25,37.25-.08,2.21-.34,4.5-.76,6.8,2.32-.9,4.68-1.66,7.03-2.25,19.38-4.86,40.84,1.1,41.37,6.8,.44,4.68-11.88,8.82-10.83,12.04,1.04,3.21,13.44-.68,15.84,3.36,2.91,4.93-10.93,22.38-29.48,29.82Z"/><path class="cls-1" d="M365.16,351.1c-2.12,.85-4.32,1.58-6.58,2.19,2.33,2.49,4.38,5.16,6.02,7.89,10.32,17.11,7.12,40.18,1.29,41.91-4.51,1.33-10.95-9.96-13.9-8.32-2.95,1.64,3.26,13.07-.25,16.19-4.54,4.05-25.83-5.39-34.93-23.18-.74-1.44-1.41-2.97-2.01-4.55-1.16,2.65-2.51,5.14-4.03,7.39-11.17,16.56-33.44,23.38-37.47,18.82-3.1-3.53,4.43-14.12,1.7-16.11-2.74-1.98-10.48,8.45-14.8,6.59-5.58-2.42-5.98-25.7,6.32-41.45,1.6-2.04,3.46-4.02,5.5-5.86-2.74-.29-5.4-.8-7.89-1.51-19.21-5.51-32.58-24.58-29.48-29.82,2.4-4.04,14.8-.15,15.84-3.36,1.05-3.22-11.27-7.36-10.83-12.04,.57-6.06,22.59-13.63,41.37-6.8,2.43,.89,4.88,2.04,7.27,3.41-.57-2.69-.91-5.38-1-7.96-.7-19.97,13.31-38.58,19.25-37.25,4.59,1.03,4.72,14.03,8.09,14.03s3.51-13,8.1-14.03c5.94-1.33,19.95,17.28,19.25,37.25-.08,2.21-.34,4.5-.76,6.8,2.32-.9,4.68-1.66,7.03-2.25,19.38-4.86,40.84,1.1,41.37,6.8,.44,4.68-11.88,8.82-10.83,12.04,1.04,3.21,13.44-.68,15.84,3.36,2.91,4.93-10.93,22.38-29.48,29.82Z"/><path class="cls-1" d="M404.16,451.1c-2.12,.85-4.32,1.58-6.58,2.19,2.33,2.49,4.38,5.16,6.02,7.89,10.32,17.11,7.12,40.18,1.29,41.91-4.51,1.33-10.95-9.96-13.9-8.32-2.95,1.64,3.26,13.07-.25,16.19-4.54,4.05-25.83-5.39-34.93-23.18-.74-1.44-1.41-2.97-2.01-4.55-1.16,2.65-2.51,5.14-4.03,7.39-11.17,16.56-33.44,23.38-37.47,18.82-3.1-3.53,4.43-14.12,1.7-16.11-2.74-1.98-10.48,8.45-14.8,6.59-5.58-2.42-5.98-25.7,6.32-41.45,1.6-2.04,3.46-4.02,5.5-5.86-2.74-.29-5.4-.8-7.89-1.51-19.21-5.51-32.58-24.58-29.48-29.82,2.4-4.04,14.8-.15,15.84-3.36,1.05-3.22-11.27-7.36-10.83-12.04,.57-6.06,22.59-13.63,41.37-6.8,2.43,.89,4.88,2.04,7.27,3.41-.57-2.69-.91-5.38-1-7.96-.7-19.97,13.31-38.58,19.25-37.25,4.59,1.03,4.72,14.03,8.09,14.03s3.51-13,8.1-14.03c5.94-1.33,19.95,17.28,19.25,37.25-.08,2.21-.34,4.5-.76,6.8,2.32-.9,4.68-1.66,7.03-2.25,19.38-4.86,40.84,1.1,41.37,6.8,.44,4.68-11.88,8.82-10.83,12.04,1.04,3.21,13.44-.68,15.84,3.36,2.91,4.93-10.93,22.38-29.48,29.82Z"/><path class="cls-1" d="M269.16,274.1c-2.12,.85-4.32,1.58-6.58,2.19,2.33,2.49,4.38,5.16,6.02,7.89,10.32,17.11,7.12,40.18,1.29,41.91-4.51,1.33-10.95-9.96-13.9-8.32-2.95,1.64,3.26,13.07-.25,16.19-4.54,4.05-25.83-5.39-34.93-23.18-.74-1.44-1.41-2.97-2.01-4.55-1.16,2.65-2.51,5.14-4.03,7.39-11.17,16.56-33.44,23.38-37.47,18.82-3.1-3.53,4.43-14.12,1.7-16.11-2.74-1.98-10.48,8.45-14.8,6.59-5.58-2.42-5.98-25.7,6.32-41.45,1.6-2.04,3.46-4.02,5.5-5.86-2.74-.29-5.4-.8-7.89-1.51-19.21-5.51-32.58-24.58-29.48-29.82,2.4-4.04,14.8-.15,15.84-3.36,1.05-3.22-11.27-7.36-10.83-12.04,.57-6.06,22.59-13.63,41.37-6.8,2.43,.89,4.88,2.04,7.27,3.41-.57-2.69-.91-5.38-1-7.96-.7-19.97,13.31-38.58,19.25-37.25,4.59,1.03,4.72,14.03,8.09,14.03s3.51-13,8.1-14.03c5.94-1.33,19.95,17.28,19.25,37.25-.08,2.21-.34,4.5-.76,6.8,2.32-.9,4.68-1.66,7.03-2.25,19.38-4.86,40.84,1.1,41.37,6.8,.44,4.68-11.88,8.82-10.83,12.04,1.04,3.21,13.44-.68,15.84,3.36,2.91,4.93-10.93,22.38-29.48,29.82Z"/><path class="cls-1" d="M842.16,563.1c-2.12,.85-4.32,1.58-6.58,2.19,2.33,2.49,4.38,5.16,6.02,7.89,10.32,17.11,7.12,40.18,1.29,41.91-4.51,1.33-10.95-9.96-13.9-8.32-2.95,1.64,3.26,13.07-.25,16.19-4.54,4.05-25.83-5.39-34.93-23.18-.74-1.44-1.41-2.97-2.01-4.55-1.16,2.65-2.51,5.14-4.03,7.39-11.17,16.56-33.44,23.38-37.47,18.82-3.1-3.53,4.43-14.12,1.7-16.11-2.74-1.98-10.48,8.45-14.8,6.59-5.58-2.42-5.98-25.7,6.32-41.45,1.6-2.04,3.46-4.02,5.5-5.86-2.74-.29-5.4-.8-7.89-1.51-19.21-5.51-32.58-24.58-29.48-29.82,2.4-4.04,14.8-.15,15.84-3.36,1.05-3.22-11.27-7.36-10.83-12.04,.57-6.06,22.59-13.63,41.37-6.8,2.43,.89,4.88,2.04,7.27,3.41-.57-2.69-.91-5.38-1-7.96-.7-19.97,13.31-38.58,19.25-37.25,4.59,1.03,4.72,14.03,8.09,14.03s3.51-13,8.1-14.03c5.94-1.33,19.95,17.28,19.25,37.25-.08,2.21-.34,4.5-.76,6.8,2.32-.9,4.68-1.66,7.03-2.25,19.38-4.86,40.84,1.1,41.37,6.8,.44,4.68-11.88,8.82-10.83,12.04,1.04,3.21,13.44-.68,15.84,3.36,2.91,4.93-10.93,22.38-29.48,29.82Z"/><path class="cls-1" d="M910.16,498.1c-2.12,.85-4.32,1.58-6.58,2.19,2.33,2.49,4.38,5.16,6.02,7.89,10.32,17.11,7.12,40.18,1.29,41.91-4.51,1.33-10.95-9.96-13.9-8.32-2.95,1.64,3.26,13.07-.25,16.19-4.54,4.05-25.83-5.39-34.93-23.18-.74-1.44-1.41-2.97-2.01-4.55-1.16,2.65-2.51,5.14-4.03,7.39-11.17,16.56-33.44,23.38-37.47,18.82-3.1-3.53,4.43-14.12,1.7-16.11-2.74-1.98-10.48,8.45-14.8,6.59-5.58-2.42-5.98-25.7,6.32-41.45,1.6-2.04,3.46-4.02,5.5-5.86-2.74-.29-5.4-.8-7.89-1.51-19.21-5.51-32.58-24.58-29.48-29.82,2.4-4.04,14.8-.15,15.84-3.36,1.05-3.22-11.27-7.36-10.83-12.04,.57-6.06,22.59-13.63,41.37-6.8,2.43,.89,4.88,2.04,7.27,3.41-.57-2.69-.91-5.38-1-7.96-.7-19.97,13.31-38.58,19.25-37.25,4.59,1.03,4.72,14.03,8.09,14.03s3.51-13,8.1-14.03c5.94-1.33,19.95,17.28,19.25,37.25-.08,2.21-.34,4.5-.76,6.8,2.32-.9,4.68-1.66,7.03-2.25,19.38-4.86,40.84,1.1,41.37,6.8,.44,4.68-11.88,8.82-10.83,12.04,1.04,3.21,13.44-.68,15.84,3.36,2.91,4.93-10.93,22.38-29.48,29.82Z"/><path class="cls-1" d="M961.16,361.1c-2.12,.85-4.32,1.58-6.58,2.19,2.33,2.49,4.38,5.16,6.02,7.89,10.32,17.11,7.12,40.18,1.29,41.91-4.51,1.33-10.95-9.96-13.9-8.32-2.95,1.64,3.26,13.07-.25,16.19-4.54,4.05-25.83-5.39-34.93-23.18-.74-1.44-1.41-2.97-2.01-4.55-1.16,2.65-2.51,5.14-4.03,7.39-11.17,16.56-33.44,23.38-37.47,18.82-3.1-3.53,4.43-14.12,1.7-16.11-2.74-1.98-10.48,8.45-14.8,6.59-5.58-2.42-5.98-25.7,6.32-41.45,1.6-2.04,3.46-4.02,5.5-5.86-2.74-.29-5.4-.8-7.89-1.51-19.21-5.51-32.58-24.58-29.48-29.82,2.4-4.04,14.8-.15,15.84-3.36,1.05-3.22-11.27-7.36-10.83-12.04,.57-6.06,22.59-13.63,41.37-6.8,2.43,.89,4.88,2.04,7.27,3.41-.57-2.69-.91-5.38-1-7.96-.7-19.97,13.31-38.58,19.25-37.25,4.59,1.03,4.72,14.03,8.09,14.03s3.51-13,8.1-14.03c5.94-1.33,19.95,17.28,19.25,37.25-.08,2.21-.34,4.5-.76,6.8,2.32-.9,4.68-1.66,7.03-2.25,19.38-4.86,40.84,1.1,41.37,6.8,.44,4.68-11.88,8.82-10.83,12.04,1.04,3.21,13.44-.68,15.84,3.36,2.91,4.93-10.93,22.38-29.48,29.82Z"/><path class="cls-1" d="M987.16,474.1c-2.12,.85-4.32,1.58-6.58,2.19,2.33,2.49,4.38,5.16,6.02,7.89,10.32,17.11,7.12,40.18,1.29,41.91-4.51,1.33-10.95-9.96-13.9-8.32-2.95,1.64,3.26,13.07-.25,16.19-4.54,4.05-25.83-5.39-34.93-23.18-.74-1.44-1.41-2.97-2.01-4.55-1.16,2.65-2.51,5.14-4.03,7.39-11.17,16.56-33.44,23.38-37.47,18.82-3.1-3.53,4.43-14.12,1.7-16.11-2.74-1.98-10.48,8.45-14.8,6.59-5.58-2.42-5.98-25.7,6.32-41.45,1.6-2.04,3.46-4.02,5.5-5.86-2.74-.29-5.4-.8-7.89-1.51-19.21-5.51-32.58-24.58-29.48-29.82,2.4-4.04,14.8-.15,15.84-3.36,1.05-3.22-11.27-7.36-10.83-12.04,.57-6.06,22.59-13.63,41.37-6.8,2.43,.89,4.88,2.04,7.27,3.41-.57-2.69-.91-5.38-1-7.96-.7-19.97,13.31-38.58,19.25-37.25,4.59,1.03,4.72,14.03,8.09,14.03s3.51-13,8.1-14.03c5.94-1.33,19.95,17.28,19.25,37.25-.08,2.21-.34,4.5-.76,6.8,2.32-.9,4.68-1.66,7.03-2.25,19.38-4.86,40.84,1.1,41.37,6.8,.44,4.68-11.88,8.82-10.83,12.04,1.04,3.21,13.44-.68,15.84,3.36,2.91,4.93-10.93,22.38-29.48,29.82Z"/><path class="cls-1" d="M1003.16,382.1c-2.12,.85-4.32,1.58-6.58,2.19,2.33,2.49,4.38,5.16,6.02,7.89,10.32,17.11,7.12,40.18,1.29,41.91-4.51,1.33-10.95-9.96-13.9-8.32-2.95,1.64,3.26,13.07-.25,16.19-4.54,4.05-25.83-5.39-34.93-23.18-.74-1.44-1.41-2.97-2.01-4.55-1.16,2.65-2.51,5.14-4.03,7.39-11.17,16.56-33.44,23.38-37.47,18.82-3.1-3.53,4.43-14.12,1.7-16.11-2.74-1.98-10.48,8.45-14.8,6.59-5.58-2.42-5.98-25.7,6.32-41.45,1.6-2.04,3.46-4.02,5.5-5.86-2.74-.29-5.4-.8-7.89-1.51-19.21-5.51-32.58-24.58-29.48-29.82,2.4-4.04,14.8-.15,15.84-3.36,1.05-3.22-11.27-7.36-10.83-12.04,.57-6.06,22.59-13.63,41.37-6.8,2.43,.89,4.88,2.04,7.27,3.41-.57-2.69-.91-5.38-1-7.96-.7-19.97,13.31-38.58,19.25-37.25,4.59,1.03,4.72,14.03,8.09,14.03s3.51-13,8.1-14.03c5.94-1.33,19.95,17.28,19.25,37.25-.08,2.21-.34,4.5-.76,6.8,2.32-.9,4.68-1.66,7.03-2.25,19.38-4.86,40.84,1.1,41.37,6.8,.44,4.68-11.88,8.82-10.83,12.04,1.04,3.21,13.44-.68,15.84,3.36,2.91,4.93-10.93,22.38-29.48,29.82Z"/><path class="cls-1" d="M1083.16,458.1c-2.12,.85-4.32,1.58-6.58,2.19,2.33,2.49,4.38,5.16,6.02,7.89,10.32,17.11,7.12,40.18,1.29,41.91-4.51,1.33-10.95-9.96-13.9-8.32-2.95,1.64,3.26,13.07-.25,16.19-4.54,4.05-25.83-5.39-34.93-23.18-.74-1.44-1.41-2.97-2.01-4.55-1.16,2.65-2.51,5.14-4.03,7.39-11.17,16.56-33.44,23.38-37.47,18.82-3.1-3.53,4.43-14.12,1.7-16.11-2.74-1.98-10.48,8.45-14.8,6.59-5.58-2.42-5.98-25.7,6.32-41.45,1.6-2.04,3.46-4.02,5.5-5.86-2.74-.29-5.4-.8-7.89-1.51-19.21-5.51-32.58-24.58-29.48-29.82,2.4-4.04,14.8-.15,15.84-3.36,1.05-3.22-11.27-7.36-10.83-12.04,.57-6.06,22.59-13.63,41.37-6.8,2.43,.89,4.88,2.04,7.27,3.41-.57-2.69-.91-5.38-1-7.96-.7-19.97,13.31-38.58,19.25-37.25,4.59,1.03,4.72,14.03,8.09,14.03s3.51-13,8.1-14.03c5.94-1.33,19.95,17.28,19.25,37.25-.08,2.21-.34,4.5-.76,6.8,2.32-.9,4.68-1.66,7.03-2.25,19.38-4.86,40.84,1.1,41.37,6.8,.44,4.68-11.88,8.82-10.83,12.04,1.04,3.21,13.44-.68,15.84,3.36,2.91,4.93-10.93,22.38-29.48,29.82Z"/><path class="cls-1" d="M340.16,428.1c-2.12,.85-4.32,1.58-6.58,2.19,2.33,2.49,4.38,5.16,6.02,7.89,10.32,17.11,7.12,40.18,1.29,41.91-4.51,1.33-10.95-9.96-13.9-8.32-2.95,1.64,3.26,13.07-.25,16.19-4.54,4.05-25.83-5.39-34.93-23.18-.74-1.44-1.41-2.97-2.01-4.55-1.16,2.65-2.51,5.14-4.03,7.39-11.17,16.56-33.44,23.38-37.47,18.82-3.1-3.53,4.43-14.12,1.7-16.11-2.74-1.98-10.48,8.45-14.8,6.59-5.58-2.42-5.98-25.7,6.32-41.45,1.6-2.04,3.46-4.02,5.5-5.86-2.74-.29-5.4-.8-7.89-1.51-19.21-5.51-32.58-24.58-29.48-29.82,2.4-4.04,14.8-.15,15.84-3.36,1.05-3.22-11.27-7.36-10.83-12.04,.57-6.06,22.59-13.63,41.37-6.8,2.43,.89,4.88,2.04,7.27,3.41-.57-2.69-.91-5.38-1-7.96-.7-19.97,13.31-38.58,19.25-37.25,4.59,1.03,4.72,14.03,8.09,14.03s3.51-13,8.1-14.03c5.94-1.33,19.95,17.28,19.25,37.25-.08,2.21-.34,4.5-.76,6.8,2.32-.9,4.68-1.66,7.03-2.25,19.38-4.86,40.84,1.1,41.37,6.8,.44,4.68-11.88,8.82-10.83,12.04,1.04,3.21,13.44-.68,15.84,3.36,2.91,4.93-10.93,22.38-29.48,29.82Z"/><path class="cls-1" d="M1026.16,551.1c-2.12,.85-4.32,1.58-6.58,2.19,2.33,2.49,4.38,5.16,6.02,7.89,10.32,17.11,7.12,40.18,1.29,41.91-4.51,1.33-10.95-9.96-13.9-8.32-2.95,1.64,3.26,13.07-.25,16.19-4.54,4.05-25.83-5.39-34.93-23.18-.74-1.44-1.41-2.97-2.01-4.55-1.16,2.65-2.51,5.14-4.03,7.39-11.17,16.56-33.44,23.38-37.47,18.82-3.1-3.53,4.43-14.12,1.7-16.11-2.74-1.98-10.48,8.45-14.8,6.59-5.58-2.42-5.98-25.7,6.32-41.45,1.6-2.04,3.46-4.02,5.5-5.86-2.74-.29-5.4-.8-7.89-1.51-19.21-5.51-32.58-24.58-29.48-29.82,2.4-4.04,14.8-.15,15.84-3.36,1.05-3.22-11.27-7.36-10.83-12.04,.57-6.06,22.59-13.63,41.37-6.8,2.43,.89,4.88,2.04,7.27,3.41-.57-2.69-.91-5.38-1-7.96-.7-19.97,13.31-38.58,19.25-37.25,4.59,1.03,4.72,14.03,8.09,14.03s3.51-13,8.1-14.03c5.94-1.33,19.95,17.28,19.25,37.25-.08,2.21-.34,4.5-.76,6.8,2.32-.9,4.68-1.66,7.03-2.25,19.38-4.86,40.84,1.1,41.37,6.8,.44,4.68-11.88,8.82-10.83,12.04,1.04,3.21,13.44-.68,15.84,3.36,2.91,4.93-10.93,22.38-29.48,29.82Z"/><path class="cls-1" d="M901.16,576.1c-2.12,.85-4.32,1.58-6.58,2.19,2.33,2.49,4.38,5.16,6.02,7.89,10.32,17.11,7.12,40.18,1.29,41.91-4.51,1.33-10.95-9.96-13.9-8.32-2.95,1.64,3.26,13.07-.25,16.19-4.54,4.05-25.83-5.39-34.93-23.18-.74-1.44-1.41-2.97-2.01-4.55-1.16,2.65-2.51,5.14-4.03,7.39-11.17,16.56-33.44,23.38-37.47,18.82-3.1-3.53,4.43-14.12,1.7-16.11-2.74-1.98-10.48,8.45-14.8,6.59-5.58-2.42-5.98-25.7,6.32-41.45,1.6-2.04,3.46-4.02,5.5-5.86-2.74-.29-5.4-.8-7.89-1.51-19.21-5.51-32.58-24.58-29.48-29.82,2.4-4.04,14.8-.15,15.84-3.36,1.05-3.22-11.27-7.36-10.83-12.04,.57-6.06,22.59-13.63,41.37-6.8,2.43,.89,4.88,2.04,7.27,3.41-.57-2.69-.91-5.38-1-7.96-.7-19.97,13.31-38.58,19.25-37.25,4.59,1.03,4.72,14.03,8.09,14.03s3.51-13,8.1-14.03c5.94-1.33,19.95,17.28,19.25,37.25-.08,2.21-.34,4.5-.76,6.8,2.32-.9,4.68-1.66,7.03-2.25,19.38-4.86,40.84,1.1,41.37,6.8,.44,4.68-11.88,8.82-10.83,12.04,1.04,3.21,13.44-.68,15.84,3.36,2.91,4.93-10.93,22.38-29.48,29.82Z"/><path class="cls-1" d="M752.16,527.1c-2.12,.85-4.32,1.58-6.58,2.19,2.33,2.49,4.38,5.16,6.02,7.89,10.32,17.11,7.12,40.18,1.29,41.91-4.51,1.33-10.95-9.96-13.9-8.32-2.95,1.64,3.26,13.07-.25,16.19-4.54,4.05-25.83-5.39-34.93-23.18-.74-1.44-1.41-2.97-2.01-4.55-1.16,2.65-2.51,5.14-4.03,7.39-11.17,16.56-33.44,23.38-37.47,18.82-3.1-3.53,4.43-14.12,1.7-16.11-2.74-1.98-10.48,8.45-14.8,6.59-5.58-2.42-5.98-25.7,6.32-41.45,1.6-2.04,3.46-4.02,5.5-5.86-2.74-.29-5.4-.8-7.89-1.51-19.21-5.51-32.58-24.58-29.48-29.82,2.4-4.04,14.8-.15,15.84-3.36,1.05-3.22-11.27-7.36-10.83-12.04,.57-6.06,22.59-13.63,41.37-6.8,2.43,.89,4.88,2.04,7.27,3.41-.57-2.69-.91-5.38-1-7.96-.7-19.97,13.31-38.58,19.25-37.25,4.59,1.03,4.72,14.03,8.09,14.03s3.51-13,8.1-14.03c5.94-1.33,19.95,17.28,19.25,37.25-.08,2.21-.34,4.5-.76,6.8,2.32-.9,4.68-1.66,7.03-2.25,19.38-4.86,40.84,1.1,41.37,6.8,.44,4.68-11.88,8.82-10.83,12.04,1.04,3.21,13.44-.68,15.84,3.36,2.91,4.93-10.93,22.38-29.48,29.82Z"/><path class="cls-1" d="M655.16,512.1c-2.12,.85-4.32,1.58-6.58,2.19,2.33,2.49,4.38,5.16,6.02,7.89,10.32,17.11,7.12,40.18,1.29,41.91-4.51,1.33-10.95-9.96-13.9-8.32-2.95,1.64,3.26,13.07-.25,16.19-4.54,4.05-25.83-5.39-34.93-23.18-.74-1.44-1.41-2.97-2.01-4.55-1.16,2.65-2.51,5.14-4.03,7.39-11.17,16.56-33.44,23.38-37.47,18.82-3.1-3.53,4.43-14.12,1.7-16.11-2.74-1.98-10.48,8.45-14.8,6.59-5.58-2.42-5.98-25.7,6.32-41.45,1.6-2.04,3.46-4.02,5.5-5.86-2.74-.29-5.4-.8-7.89-1.51-19.21-5.51-32.58-24.58-29.48-29.82,2.4-4.04,14.8-.15,15.84-3.36,1.05-3.22-11.27-7.36-10.83-12.04,.57-6.06,22.59-13.63,41.37-6.8,2.43,.89,4.88,2.04,7.27,3.41-.57-2.69-.91-5.38-1-7.96-.7-19.97,13.31-38.58,19.25-37.25,4.59,1.03,4.72,14.03,8.09,14.03s3.51-13,8.1-14.03c5.94-1.33,19.95,17.28,19.25,37.25-.08,2.21-.34,4.5-.76,6.8,2.32-.9,4.68-1.66,7.03-2.25,19.38-4.86,40.84,1.1,41.37,6.8,.44,4.68-11.88,8.82-10.83,12.04,1.04,3.21,13.44-.68,15.84,3.36,2.91,4.93-10.93,22.38-29.48,29.82Z"/><path class="cls-1" d="M1063.16,382.1c-2.12,.85-4.32,1.58-6.58,2.19,2.33,2.49,4.38,5.16,6.02,7.89,10.32,17.11,7.12,40.18,1.29,41.91-4.51,1.33-10.95-9.96-13.9-8.32-2.95,1.64,3.26,13.07-.25,16.19-4.54,4.05-25.83-5.39-34.93-23.18-.74-1.44-1.41-2.97-2.01-4.55-1.16,2.65-2.51,5.14-4.03,7.39-11.17,16.56-33.44,23.38-37.47,18.82-3.1-3.53,4.43-14.12,1.7-16.11-2.74-1.98-10.48,8.45-14.8,6.59-5.58-2.42-5.98-25.7,6.32-41.45,1.6-2.04,3.46-4.02,5.5-5.86-2.74-.29-5.4-.8-7.89-1.51-19.21-5.51-32.58-24.58-29.48-29.82,2.4-4.04,14.8-.15,15.84-3.36,1.05-3.22-11.27-7.36-10.83-12.04,.57-6.06,22.59-13.63,41.37-6.8,2.43,.89,4.88,2.04,7.27,3.41-.57-2.69-.91-5.38-1-7.96-.7-19.97,13.31-38.58,19.25-37.25,4.59,1.03,4.72,14.03,8.09,14.03s3.51-13,8.1-14.03c5.94-1.33,19.95,17.28,19.25,37.25-.08,2.21-.34,4.5-.76,6.8,2.32-.9,4.68-1.66,7.03-2.25,19.38-4.86,40.84,1.1,41.37,6.8,.44,4.68-11.88,8.82-10.83,12.04,1.04,3.21,13.44-.68,15.84,3.36,2.91,4.93-10.93,22.38-29.48,29.82Z"/><path class="cls-1" d="M1100.16,563.1c-2.12,.85-4.32,1.58-6.58,2.19,2.33,2.49,4.38,5.16,6.02,7.89,10.32,17.11,7.12,40.18,1.29,41.91-4.51,1.33-10.95-9.96-13.9-8.32-2.95,1.64,3.26,13.07-.25,16.19-4.54,4.05-25.83-5.39-34.93-23.18-.74-1.44-1.41-2.97-2.01-4.55-1.16,2.65-2.51,5.14-4.03,7.39-11.17,16.56-33.44,23.38-37.47,18.82-3.1-3.53,4.43-14.12,1.7-16.11-2.74-1.98-10.48,8.45-14.8,6.59-5.58-2.42-5.98-25.7,6.32-41.45,1.6-2.04,3.46-4.02,5.5-5.86-2.74-.29-5.4-.8-7.89-1.51-19.21-5.51-32.58-24.58-29.48-29.82,2.4-4.04,14.8-.15,15.84-3.36,1.05-3.22-11.27-7.36-10.83-12.04,.57-6.06,22.59-13.63,41.37-6.8,2.43,.89,4.88,2.04,7.27,3.41-.57-2.69-.91-5.38-1-7.96-.7-19.97,13.31-38.58,19.25-37.25,4.59,1.03,4.72,14.03,8.09,14.03s3.51-13,8.1-14.03c5.94-1.33,19.95,17.28,19.25,37.25-.08,2.21-.34,4.5-.76,6.8,2.32-.9,4.68-1.66,7.03-2.25,19.38-4.86,40.84,1.1,41.37,6.8,.44,4.68-11.88,8.82-10.83,12.04,1.04,3.21,13.44-.68,15.84,3.36,2.91,4.93-10.93,22.38-29.48,29.82Z"/><path class="cls-1" d="M271.16,351.1c-2.12,.85-4.32,1.58-6.58,2.19,2.33,2.49,4.38,5.16,6.02,7.89,10.32,17.11,7.12,40.18,1.29,41.91-4.51,1.33-10.95-9.96-13.9-8.32-2.95,1.64,3.26,13.07-.25,16.19-4.54,4.05-25.83-5.39-34.93-23.18-.74-1.44-1.41-2.97-2.01-4.55-1.16,2.65-2.51,5.14-4.03,7.39-11.17,16.56-33.44,23.38-37.47,18.82-3.1-3.53,4.43-14.12,1.7-16.11-2.74-1.98-10.48,8.45-14.8,6.59-5.58-2.42-5.98-25.7,6.32-41.45,1.6-2.04,3.46-4.02,5.5-5.86-2.74-.29-5.4-.8-7.89-1.51-19.21-5.51-32.58-24.58-29.48-29.82,2.4-4.04,14.8-.15,15.84-3.36,1.05-3.22-11.27-7.36-10.83-12.04,.57-6.06,22.59-13.63,41.37-6.8,2.43,.89,4.88,2.04,7.27,3.41-.57-2.69-.91-5.38-1-7.96-.7-19.97,13.31-38.58,19.25-37.25,4.59,1.03,4.72,14.03,8.09,14.03s3.51-13,8.1-14.03c5.94-1.33,19.95,17.28,19.25,37.25-.08,2.21-.34,4.5-.76,6.8,2.32-.9,4.68-1.66,7.03-2.25,19.38-4.86,40.84,1.1,41.37,6.8,.44,4.68-11.88,8.82-10.83,12.04,1.04,3.21,13.44-.68,15.84,3.36,2.91,4.93-10.93,22.38-29.48,29.82Z"/><path class="cls-1" d="M332.16,337.1c-2.12,.85-4.32,1.58-6.58,2.19,2.33,2.49,4.38,5.16,6.02,7.89,10.32,17.11,7.12,40.18,1.29,41.91-4.51,1.33-10.95-9.96-13.9-8.32-2.95,1.64,3.26,13.07-.25,16.19-4.54,4.05-25.83-5.39-34.93-23.18-.74-1.44-1.41-2.97-2.01-4.55-1.16,2.65-2.51,5.14-4.03,7.39-11.17,16.56-33.44,23.38-37.47,18.82-3.1-3.53,4.43-14.12,1.7-16.11-2.74-1.98-10.48,8.45-14.8,6.59-5.58-2.42-5.98-25.7,6.32-41.45,1.6-2.04,3.46-4.02,5.5-5.86-2.74-.29-5.4-.8-7.89-1.51-19.21-5.51-32.58-24.58-29.48-29.82,2.4-4.04,14.8-.15,15.84-3.36,1.05-3.22-11.27-7.36-10.83-12.04,.57-6.06,22.59-13.63,41.37-6.8,2.43,.89,4.88,2.04,7.27,3.41-.57-2.69-.91-5.38-1-7.96-.7-19.97,13.31-38.58,19.25-37.25,4.59,1.03,4.72,14.03,8.09,14.03s3.51-13,8.1-14.03c5.94-1.33,19.95,17.28,19.25,37.25-.08,2.21-.34,4.5-.76,6.8,2.32-.9,4.68-1.66,7.03-2.25,19.38-4.86,40.84,1.1,41.37,6.8,.44,4.68-11.88,8.82-10.83,12.04,1.04,3.21,13.44-.68,15.84,3.36,2.91,4.93-10.93,22.38-29.48,29.82Z"/><path class="cls-1" d="M289.16,363.1c-2.12,.85-4.32,1.58-6.58,2.19,2.33,2.49,4.38,5.16,6.02,7.89,10.32,17.11,7.12,40.18,1.29,41.91-4.51,1.33-10.95-9.96-13.9-8.32-2.95,1.64,3.26,13.07-.25,16.19-4.54,4.05-25.83-5.39-34.93-23.18-.74-1.44-1.41-2.97-2.01-4.55-1.16,2.65-2.51,5.14-4.03,7.39-11.17,16.56-33.44,23.38-37.47,18.82-3.1-3.53,4.43-14.12,1.7-16.11-2.74-1.98-10.48,8.45-14.8,6.59-5.58-2.42-5.98-25.7,6.32-41.45,1.6-2.04,3.46-4.02,5.5-5.86-2.74-.29-5.4-.8-7.89-1.51-19.21-5.51-32.58-24.58-29.48-29.82,2.4-4.04,14.8-.15,15.84-3.36,1.05-3.22-11.27-7.36-10.83-12.04,.57-6.06,22.59-13.63,41.37-6.8,2.43,.89,4.88,2.04,7.27,3.41-.57-2.69-.91-5.38-1-7.96-.7-19.97,13.31-38.58,19.25-37.25,4.59,1.03,4.72,14.03,8.09,14.03s3.51-13,8.1-14.03c5.94-1.33,19.95,17.28,19.25,37.25-.08,2.21-.34,4.5-.76,6.8,2.32-.9,4.68-1.66,7.03-2.25,19.38-4.86,40.84,1.1,41.37,6.8,.44,4.68-11.88,8.82-10.83,12.04,1.04,3.21,13.44-.68,15.84,3.36,2.91,4.93-10.93,22.38-29.48,29.82Z"/><path class="cls-1" d="M938.16,542.1c-2.12,.85-4.32,1.58-6.58,2.19,2.33,2.49,4.38,5.16,6.02,7.89,10.32,17.11,7.12,40.18,1.29,41.91-4.51,1.33-10.95-9.96-13.9-8.32-2.95,1.64,3.26,13.07-.25,16.19-4.54,4.05-25.83-5.39-34.93-23.18-.74-1.44-1.41-2.97-2.01-4.55-1.16,2.65-2.51,5.14-4.03,7.39-11.17,16.56-33.44,23.38-37.47,18.82-3.1-3.53,4.43-14.12,1.7-16.11-2.74-1.98-10.48,8.45-14.8,6.59-5.58-2.42-5.98-25.7,6.32-41.45,1.6-2.04,3.46-4.02,5.5-5.86-2.74-.29-5.4-.8-7.89-1.51-19.21-5.51-32.58-24.58-29.48-29.82,2.4-4.04,14.8-.15,15.84-3.36,1.05-3.22-11.27-7.36-10.83-12.04,.57-6.06,22.59-13.63,41.37-6.8,2.43,.89,4.88,2.04,7.27,3.41-.57-2.69-.91-5.38-1-7.96-.7-19.97,13.31-38.58,19.25-37.25,4.59,1.03,4.72,14.03,8.09,14.03s3.51-13,8.1-14.03c5.94-1.33,19.95,17.28,19.25,37.25-.08,2.21-.34,4.5-.76,6.8,2.32-.9,4.68-1.66,7.03-2.25,19.38-4.86,40.84,1.1,41.37,6.8,.44,4.68-11.88,8.82-10.83,12.04,1.04,3.21,13.44-.68,15.84,3.36,2.91,4.93-10.93,22.38-29.48,29.82Z"/><path class="cls-1" d="M751.16,466.1c-2.12,.85-4.32,1.58-6.58,2.19,2.33,2.49,4.38,5.16,6.02,7.89,10.32,17.11,7.12,40.18,1.29,41.91-4.51,1.33-10.95-9.96-13.9-8.32-2.95,1.64,3.26,13.07-.25,16.19-4.54,4.05-25.83-5.39-34.93-23.18-.74-1.44-1.41-2.97-2.01-4.55-1.16,2.65-2.51,5.14-4.03,7.39-11.17,16.56-33.44,23.38-37.47,18.82-3.1-3.53,4.43-14.12,1.7-16.11-2.74-1.98-10.48,8.45-14.8,6.59-5.58-2.42-5.98-25.7,6.32-41.45,1.6-2.04,3.46-4.02,5.5-5.86-2.74-.29-5.4-.8-7.89-1.51-19.21-5.51-32.58-24.58-29.48-29.82,2.4-4.04,14.8-.15,15.84-3.36,1.05-3.22-11.27-7.36-10.83-12.04,.57-6.06,22.59-13.63,41.37-6.8,2.43,.89,4.88,2.04,7.27,3.41-.57-2.69-.91-5.38-1-7.96-.7-19.97,13.31-38.58,19.25-37.25,4.59,1.03,4.72,14.03,8.09,14.03s3.51-13,8.1-14.03c5.94-1.33,19.95,17.28,19.25,37.25-.08,2.21-.34,4.5-.76,6.8,2.32-.9,4.68-1.66,7.03-2.25,19.38-4.86,40.84,1.1,41.37,6.8,.44,4.68-11.88,8.82-10.83,12.04,1.04,3.21,13.44-.68,15.84,3.36,2.91,4.93-10.93,22.38-29.48,29.82Z"/><path class="cls-1" d="M822.16,589.1c-2.12,.85-4.32,1.58-6.58,2.19,2.33,2.49,4.38,5.16,6.02,7.89,10.32,17.11,7.12,40.18,1.29,41.91-4.51,1.33-10.95-9.96-13.9-8.32-2.95,1.64,3.26,13.07-.25,16.19-4.54,4.05-25.83-5.39-34.93-23.18-.74-1.44-1.41-2.97-2.01-4.55-1.16,2.65-2.51,5.14-4.03,7.39-11.17,16.56-33.44,23.38-37.47,18.82-3.1-3.53,4.43-14.12,1.7-16.11-2.74-1.98-10.48,8.45-14.8,6.59-5.58-2.42-5.98-25.7,6.32-41.45,1.6-2.04,3.46-4.02,5.5-5.86-2.74-.29-5.4-.8-7.89-1.51-19.21-5.51-32.58-24.58-29.48-29.82,2.4-4.04,14.8-.15,15.84-3.36,1.05-3.22-11.27-7.36-10.83-12.04,.57-6.06,22.59-13.63,41.37-6.8,2.43,.89,4.88,2.04,7.27,3.41-.57-2.69-.91-5.38-1-7.96-.7-19.97,13.31-38.58,19.25-37.25,4.59,1.03,4.72,14.03,8.09,14.03s3.51-13,8.1-14.03c5.94-1.33,19.95,17.28,19.25,37.25-.08,2.21-.34,4.5-.76,6.8,2.32-.9,4.68-1.66,7.03-2.25,19.38-4.86,40.84,1.1,41.37,6.8,.44,4.68-11.88,8.82-10.83,12.04,1.04,3.21,13.44-.68,15.84,3.36,2.91,4.93-10.93,22.38-29.48,29.82Z"/><path class="cls-1" d="M971.16,628.1c-2.12,.85-4.32,1.58-6.58,2.19,2.33,2.49,4.38,5.16,6.02,7.89,10.32,17.11,7.12,40.18,1.29,41.91-4.51,1.33-10.95-9.96-13.9-8.32-2.95,1.64,3.26,13.07-.25,16.19-4.54,4.05-25.83-5.39-34.93-23.18-.74-1.44-1.41-2.97-2.01-4.55-1.16,2.65-2.51,5.14-4.03,7.39-11.17,16.56-33.44,23.38-37.47,18.82-3.1-3.53,4.43-14.12,1.7-16.11-2.74-1.98-10.48,8.45-14.8,6.59-5.58-2.42-5.98-25.7,6.32-41.45,1.6-2.04,3.46-4.02,5.5-5.86-2.74-.29-5.4-.8-7.89-1.51-19.21-5.51-32.58-24.58-29.48-29.82,2.4-4.04,14.8-.15,15.84-3.36,1.05-3.22-11.27-7.36-10.83-12.04,.57-6.06,22.59-13.63,41.37-6.8,2.43,.89,4.88,2.04,7.27,3.41-.57-2.69-.91-5.38-1-7.96-.7-19.97,13.31-38.58,19.25-37.25,4.59,1.03,4.72,14.03,8.09,14.03s3.51-13,8.1-14.03c5.94-1.33,19.95,17.28,19.25,37.25-.08,2.21-.34,4.5-.76,6.8,2.32-.9,4.68-1.66,7.03-2.25,19.38-4.86,40.84,1.1,41.37,6.8,.44,4.68-11.88,8.82-10.83,12.04,1.04,3.21,13.44-.68,15.84,3.36,2.91,4.93-10.93,22.38-29.48,29.82Z"/><path class="cls-1" d="M1026.16,619.1c-2.12,.85-4.32,1.58-6.58,2.19,2.33,2.49,4.38,5.16,6.02,7.89,10.32,17.11,7.12,40.18,1.29,41.91-4.51,1.33-10.95-9.96-13.9-8.32-2.95,1.64,3.26,13.07-.25,16.19-4.54,4.05-25.83-5.39-34.93-23.18-.74-1.44-1.41-2.97-2.01-4.55-1.16,2.65-2.51,5.14-4.03,7.39-11.17,16.56-33.44,23.38-37.47,18.82-3.1-3.53,4.43-14.12,1.7-16.11-2.74-1.98-10.48,8.45-14.8,6.59-5.58-2.42-5.98-25.7,6.32-41.45,1.6-2.04,3.46-4.02,5.5-5.86-2.74-.29-5.4-.8-7.89-1.51-19.21-5.51-32.58-24.58-29.48-29.82,2.4-4.04,14.8-.15,15.84-3.36,1.05-3.22-11.27-7.36-10.83-12.04,.57-6.06,22.59-13.63,41.37-6.8,2.43,.89,4.88,2.04,7.27,3.41-.57-2.69-.91-5.38-1-7.96-.7-19.97,13.31-38.58,19.25-37.25,4.59,1.03,4.72,14.03,8.09,14.03s3.51-13,8.1-14.03c5.94-1.33,19.95,17.28,19.25,37.25-.08,2.21-.34,4.5-.76,6.8,2.32-.9,4.68-1.66,7.03-2.25,19.38-4.86,40.84,1.1,41.37,6.8,.44,4.68-11.88,8.82-10.83,12.04,1.04,3.21,13.44-.68,15.84,3.36,2.91,4.93-10.93,22.38-29.48,29.82Z"/><path class="cls-1" d="M1104.16,595.1c-2.12,.85-4.32,1.58-6.58,2.19,2.33,2.49,4.38,5.16,6.02,7.89,10.32,17.11,7.12,40.18,1.29,41.91-4.51,1.33-10.95-9.96-13.9-8.32-2.95,1.64,3.26,13.07-.25,16.19-4.54,4.05-25.83-5.39-34.93-23.18-.74-1.44-1.41-2.97-2.01-4.55-1.16,2.65-2.51,5.14-4.03,7.39-11.17,16.56-33.44,23.38-37.47,18.82-3.1-3.53,4.43-14.12,1.7-16.11-2.74-1.98-10.48,8.45-14.8,6.59-5.58-2.42-5.98-25.7,6.32-41.45,1.6-2.04,3.46-4.02,5.5-5.86-2.74-.29-5.4-.8-7.89-1.51-19.21-5.51-32.58-24.58-29.48-29.82,2.4-4.04,14.8-.15,15.84-3.36,1.05-3.22-11.27-7.36-10.83-12.04,.57-6.06,22.59-13.63,41.37-6.8,2.43,.89,4.88,2.04,7.27,3.41-.57-2.69-.91-5.38-1-7.96-.7-19.97,13.31-38.58,19.25-37.25,4.59,1.03,4.72,14.03,8.09,14.03s3.51-13,8.1-14.03c5.94-1.33,19.95,17.28,19.25,37.25-.08,2.21-.34,4.5-.76,6.8,2.32-.9,4.68-1.66,7.03-2.25,19.38-4.86,40.84,1.1,41.37,6.8,.44,4.68-11.88,8.82-10.83,12.04,1.04,3.21,13.44-.68,15.84,3.36,2.91,4.93-10.93,22.38-29.48,29.82Z"/><path class="cls-1" d="M880.16,640.1c-2.12,.85-4.32,1.58-6.58,2.19,2.33,2.49,4.38,5.16,6.02,7.89,10.32,17.11,7.12,40.18,1.29,41.91-4.51,1.33-10.95-9.96-13.9-8.32-2.95,1.64,3.26,13.07-.25,16.19-4.54,4.05-25.83-5.39-34.93-23.18-.74-1.44-1.41-2.97-2.01-4.55-1.16,2.65-2.51,5.14-4.03,7.39-11.17,16.56-33.44,23.38-37.47,18.82-3.1-3.53,4.43-14.12,1.7-16.11-2.74-1.98-10.48,8.45-14.8,6.59-5.58-2.42-5.98-25.7,6.32-41.45,1.6-2.04,3.46-4.02,5.5-5.86-2.74-.29-5.4-.8-7.89-1.51-19.21-5.51-32.58-24.58-29.48-29.82,2.4-4.04,14.8-.15,15.84-3.36,1.05-3.22-11.27-7.36-10.83-12.04,.57-6.06,22.59-13.63,41.37-6.8,2.43,.89,4.88,2.04,7.27,3.41-.57-2.69-.91-5.38-1-7.96-.7-19.97,13.31-38.58,19.25-37.25,4.59,1.03,4.72,14.03,8.09,14.03s3.51-13,8.1-14.03c5.94-1.33,19.95,17.28,19.25,37.25-.08,2.21-.34,4.5-.76,6.8,2.32-.9,4.68-1.66,7.03-2.25,19.38-4.86,40.84,1.1,41.37,6.8,.44,4.68-11.88,8.82-10.83,12.04,1.04,3.21,13.44-.68,15.84,3.36,2.91,4.93-10.93,22.38-29.48,29.82Z"/><path class="cls-1" d="M606.16,233.1c-2.12,.85-4.32,1.58-6.58,2.19,2.33,2.49,4.38,5.16,6.02,7.89,10.32,17.11,7.12,40.18,1.29,41.91-4.51,1.33-10.95-9.96-13.9-8.32-2.95,1.64,3.26,13.07-.25,16.19-4.54,4.05-25.83-5.39-34.93-23.18-.74-1.44-1.41-2.97-2.01-4.55-1.16,2.65-2.51,5.14-4.03,7.39-11.17,16.56-33.44,23.38-37.47,18.82-3.1-3.53,4.43-14.12,1.7-16.11-2.74-1.98-10.48,8.45-14.8,6.59-5.58-2.42-5.98-25.7,6.32-41.45,1.6-2.04,3.46-4.02,5.5-5.86-2.74-.29-5.4-.8-7.89-1.51-19.21-5.51-32.58-24.58-29.48-29.82,2.4-4.04,14.8-.15,15.84-3.36,1.05-3.22-11.27-7.36-10.83-12.04,.57-6.06,22.59-13.63,41.37-6.8,2.43,.89,4.88,2.04,7.27,3.41-.57-2.69-.91-5.38-1-7.96-.7-19.97,13.31-38.58,19.25-37.25,4.59,1.03,4.72,14.03,8.09,14.03s3.51-13,8.1-14.03c5.94-1.33,19.95,17.28,19.25,37.25-.08,2.21-.34,4.5-.76,6.8,2.32-.9,4.68-1.66,7.03-2.25,19.38-4.86,40.84,1.1,41.37,6.8,.44,4.68-11.88,8.82-10.83,12.04,1.04,3.21,13.44-.68,15.84,3.36,2.91,4.93-10.93,22.38-29.48,29.82Z"/><path class="cls-1" d="M334.16,499.1c-2.12,.85-4.32,1.58-6.58,2.19,2.33,2.49,4.38,5.16,6.02,7.89,10.32,17.11,7.12,40.18,1.29,41.91-4.51,1.33-10.95-9.96-13.9-8.32-2.95,1.64,3.26,13.07-.25,16.19-4.54,4.05-25.83-5.39-34.93-23.18-.74-1.44-1.41-2.97-2.01-4.55-1.16,2.65-2.51,5.14-4.03,7.39-11.17,16.56-33.44,23.38-37.47,18.82-3.1-3.53,4.43-14.12,1.7-16.11-2.74-1.98-10.48,8.45-14.8,6.59-5.58-2.42-5.98-25.7,6.32-41.45,1.6-2.04,3.46-4.02,5.5-5.86-2.74-.29-5.4-.8-7.89-1.51-19.21-5.51-32.58-24.58-29.48-29.82,2.4-4.04,14.8-.15,15.84-3.36,1.05-3.22-11.27-7.36-10.83-12.04,.57-6.06,22.59-13.63,41.37-6.8,2.43,.89,4.88,2.04,7.27,3.41-.57-2.69-.91-5.38-1-7.96-.7-19.97,13.31-38.58,19.25-37.25,4.59,1.03,4.72,14.03,8.09,14.03s3.51-13,8.1-14.03c5.94-1.33,19.95,17.28,19.25,37.25-.08,2.21-.34,4.5-.76,6.8,2.32-.9,4.68-1.66,7.03-2.25,19.38-4.86,40.84,1.1,41.37,6.8,.44,4.68-11.88,8.82-10.83,12.04,1.04,3.21,13.44-.68,15.84,3.36,2.91,4.93-10.93,22.38-29.48,29.82Z"/><path class="cls-1" d="M189.16,332.1c-2.12,.85-4.32,1.58-6.58,2.19,2.33,2.49,4.38,5.16,6.02,7.89,10.32,17.11,7.12,40.18,1.29,41.91-4.51,1.33-10.95-9.96-13.9-8.32-2.95,1.64,3.26,13.07-.25,16.19-4.54,4.05-25.83-5.39-34.93-23.18-.74-1.44-1.41-2.97-2.01-4.55-1.16,2.65-2.51,5.14-4.03,7.39-11.17,16.56-33.44,23.38-37.47,18.82-3.1-3.53,4.43-14.12,1.7-16.11-2.74-1.98-10.48,8.45-14.8,6.59-5.58-2.42-5.98-25.7,6.32-41.45,1.6-2.04,3.46-4.02,5.5-5.86-2.74-.29-5.4-.8-7.89-1.51-19.21-5.51-32.58-24.58-29.48-29.82,2.4-4.04,14.8-.15,15.84-3.36,1.05-3.22-11.27-7.36-10.83-12.04,.57-6.06,22.59-13.63,41.37-6.8,2.43,.89,4.88,2.04,7.27,3.41-.57-2.69-.91-5.38-1-7.96-.7-19.97,13.31-38.58,19.25-37.25,4.59,1.03,4.72,14.03,8.09,14.03s3.51-13,8.1-14.03c5.94-1.33,19.95,17.28,19.25,37.25-.08,2.21-.34,4.5-.76,6.8,2.32-.9,4.68-1.66,7.03-2.25,19.38-4.86,40.84,1.1,41.37,6.8,.44,4.68-11.88,8.82-10.83,12.04,1.04,3.21,13.44-.68,15.84,3.36,2.91,4.93-10.93,22.38-29.48,29.82Z"/><path class="cls-1" d="M392.16,264.1c-2.12,.85-4.32,1.58-6.58,2.19,2.33,2.49,4.38,5.16,6.02,7.89,10.32,17.11,7.12,40.18,1.29,41.91-4.51,1.33-10.95-9.96-13.9-8.32-2.95,1.64,3.26,13.07-.25,16.19-4.54,4.05-25.83-5.39-34.93-23.18-.74-1.44-1.41-2.97-2.01-4.55-1.16,2.65-2.51,5.14-4.03,7.39-11.17,16.56-33.44,23.38-37.47,18.82-3.1-3.53,4.43-14.12,1.7-16.11-2.74-1.98-10.48,8.45-14.8,6.59-5.58-2.42-5.98-25.7,6.32-41.45,1.6-2.04,3.46-4.02,5.5-5.86-2.74-.29-5.4-.8-7.89-1.51-19.21-5.51-32.58-24.58-29.48-29.82,2.4-4.04,14.8-.15,15.84-3.36,1.05-3.22-11.27-7.36-10.83-12.04,.57-6.06,22.59-13.63,41.37-6.8,2.43,.89,4.88,2.04,7.27,3.41-.57-2.69-.91-5.38-1-7.96-.7-19.97,13.31-38.58,19.25-37.25,4.59,1.03,4.72,14.03,8.09,14.03s3.51-13,8.1-14.03c5.94-1.33,19.95,17.28,19.25,37.25-.08,2.21-.34,4.5-.76,6.8,2.32-.9,4.68-1.66,7.03-2.25,19.38-4.86,40.84,1.1,41.37,6.8,.44,4.68-11.88,8.82-10.83,12.04,1.04,3.21,13.44-.68,15.84,3.36,2.91,4.93-10.93,22.38-29.48,29.82Z"/><path class="cls-1" d="M511.16,299.1c-2.12,.85-4.32,1.58-6.58,2.19,2.33,2.49,4.38,5.16,6.02,7.89,10.32,17.11,7.12,40.18,1.29,41.91-4.51,1.33-10.95-9.96-13.9-8.32-2.95,1.64,3.26,13.07-.25,16.19-4.54,4.05-25.83-5.39-34.93-23.18-.74-1.44-1.41-2.97-2.01-4.55-1.16,2.65-2.51,5.14-4.03,7.39-11.17,16.56-33.44,23.38-37.47,18.82-3.1-3.53,4.43-14.12,1.7-16.11-2.74-1.98-10.48,8.45-14.8,6.59-5.58-2.42-5.98-25.7,6.32-41.45,1.6-2.04,3.46-4.02,5.5-5.86-2.74-.29-5.4-.8-7.89-1.51-19.21-5.51-32.58-24.58-29.48-29.82,2.4-4.04,14.8-.15,15.84-3.36,1.05-3.22-11.27-7.36-10.83-12.04,.57-6.06,22.59-13.63,41.37-6.8,2.43,.89,4.88,2.04,7.27,3.41-.57-2.69-.91-5.38-1-7.96-.7-19.97,13.31-38.58,19.25-37.25,4.59,1.03,4.72,14.03,8.09,14.03s3.51-13,8.1-14.03c5.94-1.33,19.95,17.28,19.25,37.25-.08,2.21-.34,4.5-.76,6.8,2.32-.9,4.68-1.66,7.03-2.25,19.38-4.86,40.84,1.1,41.37,6.8,.44,4.68-11.88,8.82-10.83,12.04,1.04,3.21,13.44-.68,15.84,3.36,2.91,4.93-10.93,22.38-29.48,29.82Z"/><path class="cls-1" d="M576.16,332.1c-2.12,.85-4.32,1.58-6.58,2.19,2.33,2.49,4.38,5.16,6.02,7.89,10.32,17.11,7.12,40.18,1.29,41.91-4.51,1.33-10.95-9.96-13.9-8.32-2.95,1.64,3.26,13.07-.25,16.19-4.54,4.05-25.83-5.39-34.93-23.18-.74-1.44-1.41-2.97-2.01-4.55-1.16,2.65-2.51,5.14-4.03,7.39-11.17,16.56-33.44,23.38-37.47,18.82-3.1-3.53,4.43-14.12,1.7-16.11-2.74-1.98-10.48,8.45-14.8,6.59-5.58-2.42-5.98-25.7,6.32-41.45,1.6-2.04,3.46-4.02,5.5-5.86-2.74-.29-5.4-.8-7.89-1.51-19.21-5.51-32.58-24.58-29.48-29.82,2.4-4.04,14.8-.15,15.84-3.36,1.05-3.22-11.27-7.36-10.83-12.04,.57-6.06,22.59-13.63,41.37-6.8,2.43,.89,4.88,2.04,7.27,3.41-.57-2.69-.91-5.38-1-7.96-.7-19.97,13.31-38.58,19.25-37.25,4.59,1.03,4.72,14.03,8.09,14.03s3.51-13,8.1-14.03c5.94-1.33,19.95,17.28,19.25,37.25-.08,2.21-.34,4.5-.76,6.8,2.32-.9,4.68-1.66,7.03-2.25,19.38-4.86,40.84,1.1,41.37,6.8,.44,4.68-11.88,8.82-10.83,12.04,1.04,3.21,13.44-.68,15.84,3.36,2.91,4.93-10.93,22.38-29.48,29.82Z"/><path class="cls-1" d="M790.16,332.1c-2.12,.85-4.32,1.58-6.58,2.19,2.33,2.49,4.38,5.16,6.02,7.89,10.32,17.11,7.12,40.18,1.29,41.91-4.51,1.33-10.95-9.96-13.9-8.32-2.95,1.64,3.26,13.07-.25,16.19-4.54,4.05-25.83-5.39-34.93-23.18-.74-1.44-1.41-2.97-2.01-4.55-1.16,2.65-2.51,5.14-4.03,7.39-11.17,16.56-33.44,23.38-37.47,18.82-3.1-3.53,4.43-14.12,1.7-16.11-2.74-1.98-10.48,8.45-14.8,6.59-5.58-2.42-5.98-25.7,6.32-41.45,1.6-2.04,3.46-4.02,5.5-5.86-2.74-.29-5.4-.8-7.89-1.51-19.21-5.51-32.58-24.58-29.48-29.82,2.4-4.04,14.8-.15,15.84-3.36,1.05-3.22-11.27-7.36-10.83-12.04,.57-6.06,22.59-13.63,41.37-6.8,2.43,.89,4.88,2.04,7.27,3.41-.57-2.69-.91-5.38-1-7.96-.7-19.97,13.31-38.58,19.25-37.25,4.59,1.03,4.72,14.03,8.09,14.03s3.51-13,8.1-14.03c5.94-1.33,19.95,17.28,19.25,37.25-.08,2.21-.34,4.5-.76,6.8,2.32-.9,4.68-1.66,7.03-2.25,19.38-4.86,40.84,1.1,41.37,6.8,.44,4.68-11.88,8.82-10.83,12.04,1.04,3.21,13.44-.68,15.84,3.36,2.91,4.93-10.93,22.38-29.48,29.82Z"/><path class="cls-1" d="M947.16,306.1c-2.12,.85-4.32,1.58-6.58,2.19,2.33,2.49,4.38,5.16,6.02,7.89,10.32,17.11,7.12,40.18,1.29,41.91-4.51,1.33-10.95-9.96-13.9-8.32-2.95,1.64,3.26,13.07-.25,16.19-4.54,4.05-25.83-5.39-34.93-23.18-.74-1.44-1.41-2.97-2.01-4.55-1.16,2.65-2.51,5.14-4.03,7.39-11.17,16.56-33.44,23.38-37.47,18.82-3.1-3.53,4.43-14.12,1.7-16.11-2.74-1.98-10.48,8.45-14.8,6.59-5.58-2.42-5.98-25.7,6.32-41.45,1.6-2.04,3.46-4.02,5.5-5.86-2.74-.29-5.4-.8-7.89-1.51-19.21-5.51-32.58-24.58-29.48-29.82,2.4-4.04,14.8-.15,15.84-3.36,1.05-3.22-11.27-7.36-10.83-12.04,.57-6.06,22.59-13.63,41.37-6.8,2.43,.89,4.88,2.04,7.27,3.41-.57-2.69-.91-5.38-1-7.96-.7-19.97,13.31-38.58,19.25-37.25,4.59,1.03,4.72,14.03,8.09,14.03s3.51-13,8.1-14.03c5.94-1.33,19.95,17.28,19.25,37.25-.08,2.21-.34,4.5-.76,6.8,2.32-.9,4.68-1.66,7.03-2.25,19.38-4.86,40.84,1.1,41.37,6.8,.44,4.68-11.88,8.82-10.83,12.04,1.04,3.21,13.44-.68,15.84,3.36,2.91,4.93-10.93,22.38-29.48,29.82Z"/><path class="cls-1" d="M1024.16,314.1c-2.12,.85-4.32,1.58-6.58,2.19,2.33,2.49,4.38,5.16,6.02,7.89,10.32,17.11,7.12,40.18,1.29,41.91-4.51,1.33-10.95-9.96-13.9-8.32-2.95,1.64,3.26,13.07-.25,16.19-4.54,4.05-25.83-5.39-34.93-23.18-.74-1.44-1.41-2.97-2.01-4.55-1.16,2.65-2.51,5.14-4.03,7.39-11.17,16.56-33.44,23.38-37.47,18.82-3.1-3.53,4.43-14.12,1.7-16.11-2.74-1.98-10.48,8.45-14.8,6.59-5.58-2.42-5.98-25.7,6.32-41.45,1.6-2.04,3.46-4.02,5.5-5.86-2.74-.29-5.4-.8-7.89-1.51-19.21-5.51-32.58-24.58-29.48-29.82,2.4-4.04,14.8-.15,15.84-3.36,1.05-3.22-11.27-7.36-10.83-12.04,.57-6.06,22.59-13.63,41.37-6.8,2.43,.89,4.88,2.04,7.27,3.41-.57-2.69-.91-5.38-1-7.96-.7-19.97,13.31-38.58,19.25-37.25,4.59,1.03,4.72,14.03,8.09,14.03s3.51-13,8.1-14.03c5.94-1.33,19.95,17.28,19.25,37.25-.08,2.21-.34,4.5-.76,6.8,2.32-.9,4.68-1.66,7.03-2.25,19.38-4.86,40.84,1.1,41.37,6.8,.44,4.68-11.88,8.82-10.83,12.04,1.04,3.21,13.44-.68,15.84,3.36,2.91,4.93-10.93,22.38-29.48,29.82Z"/><path class="cls-1" d="M923.16,324.1c-2.12,.85-4.32,1.58-6.58,2.19,2.33,2.49,4.38,5.16,6.02,7.89,10.32,17.11,7.12,40.18,1.29,41.91-4.51,1.33-10.95-9.96-13.9-8.32-2.95,1.64,3.26,13.07-.25,16.19-4.54,4.05-25.83-5.39-34.93-23.18-.74-1.44-1.41-2.97-2.01-4.55-1.16,2.65-2.51,5.14-4.03,7.39-11.17,16.56-33.44,23.38-37.47,18.82-3.1-3.53,4.43-14.12,1.7-16.11-2.74-1.98-10.48,8.45-14.8,6.59-5.58-2.42-5.98-25.7,6.32-41.45,1.6-2.04,3.46-4.02,5.5-5.86-2.74-.29-5.4-.8-7.89-1.51-19.21-5.51-32.58-24.58-29.48-29.82,2.4-4.04,14.8-.15,15.84-3.36,1.05-3.22-11.27-7.36-10.83-12.04,.57-6.06,22.59-13.63,41.37-6.8,2.43,.89,4.88,2.04,7.27,3.41-.57-2.69-.91-5.38-1-7.96-.7-19.97,13.31-38.58,19.25-37.25,4.59,1.03,4.72,14.03,8.09,14.03s3.51-13,8.1-14.03c5.94-1.33,19.95,17.28,19.25,37.25-.08,2.21-.34,4.5-.76,6.8,2.32-.9,4.68-1.66,7.03-2.25,19.38-4.86,40.84,1.1,41.37,6.8,.44,4.68-11.88,8.82-10.83,12.04,1.04,3.21,13.44-.68,15.84,3.36,2.91,4.93-10.93,22.38-29.48,29.82Z"/><path class="cls-1" d="M851.16,256.1c-2.12,.85-4.32,1.58-6.58,2.19,2.33,2.49,4.38,5.16,6.02,7.89,10.32,17.11,7.12,40.18,1.29,41.91-4.51,1.33-10.95-9.96-13.9-8.32-2.95,1.64,3.26,13.07-.25,16.19-4.54,4.05-25.83-5.39-34.93-23.18-.74-1.44-1.41-2.97-2.01-4.55-1.16,2.65-2.51,5.14-4.03,7.39-11.17,16.56-33.44,23.38-37.47,18.82-3.1-3.53,4.43-14.12,1.7-16.11-2.74-1.98-10.48,8.45-14.8,6.59-5.58-2.42-5.98-25.7,6.32-41.45,1.6-2.04,3.46-4.02,5.5-5.86-2.74-.29-5.4-.8-7.89-1.51-19.21-5.51-32.58-24.58-29.48-29.82,2.4-4.04,14.8-.15,15.84-3.36,1.05-3.22-11.27-7.36-10.83-12.04,.57-6.06,22.59-13.63,41.37-6.8,2.43,.89,4.88,2.04,7.27,3.41-.57-2.69-.91-5.38-1-7.96-.7-19.97,13.31-38.58,19.25-37.25,4.59,1.03,4.72,14.03,8.09,14.03s3.51-13,8.1-14.03c5.94-1.33,19.95,17.28,19.25,37.25-.08,2.21-.34,4.5-.76,6.8,2.32-.9,4.68-1.66,7.03-2.25,19.38-4.86,40.84,1.1,41.37,6.8,.44,4.68-11.88,8.82-10.83,12.04,1.04,3.21,13.44-.68,15.84,3.36,2.91,4.93-10.93,22.38-29.48,29.82Z"/><path class="cls-1" d="M722.16,276.1c-2.12,.85-4.32,1.58-6.58,2.19,2.33,2.49,4.38,5.16,6.02,7.89,10.32,17.11,7.12,40.18,1.29,41.91-4.51,1.33-10.95-9.96-13.9-8.32-2.95,1.64,3.26,13.07-.25,16.19-4.54,4.05-25.83-5.39-34.93-23.18-.74-1.44-1.41-2.97-2.01-4.55-1.16,2.65-2.51,5.14-4.03,7.39-11.17,16.56-33.44,23.38-37.47,18.82-3.1-3.53,4.43-14.12,1.7-16.11-2.74-1.98-10.48,8.45-14.8,6.59-5.58-2.42-5.98-25.7,6.32-41.45,1.6-2.04,3.46-4.02,5.5-5.86-2.74-.29-5.4-.8-7.89-1.51-19.21-5.51-32.58-24.58-29.48-29.82,2.4-4.04,14.8-.15,15.84-3.36,1.05-3.22-11.27-7.36-10.83-12.04,.57-6.06,22.59-13.63,41.37-6.8,2.43,.89,4.88,2.04,7.27,3.41-.57-2.69-.91-5.38-1-7.96-.7-19.97,13.31-38.58,19.25-37.25,4.59,1.03,4.72,14.03,8.09,14.03s3.51-13,8.1-14.03c5.94-1.33,19.95,17.28,19.25,37.25-.08,2.21-.34,4.5-.76,6.8,2.32-.9,4.68-1.66,7.03-2.25,19.38-4.86,40.84,1.1,41.37,6.8,.44,4.68-11.88,8.82-10.83,12.04,1.04,3.21,13.44-.68,15.84,3.36,2.91,4.93-10.93,22.38-29.48,29.82Z"/><path class="cls-1" d="M278.16,151.1c-2.12,.85-4.32,1.58-6.58,2.19,2.33,2.49,4.38,5.16,6.02,7.89,10.32,17.11,7.12,40.18,1.29,41.91-4.51,1.33-10.95-9.96-13.9-8.32-2.95,1.64,3.26,13.07-.25,16.19-4.54,4.05-25.83-5.39-34.93-23.18-.74-1.44-1.41-2.97-2.01-4.55-1.16,2.65-2.51,5.14-4.03,7.39-11.17,16.56-33.44,23.38-37.47,18.82-3.1-3.53,4.43-14.12,1.7-16.11-2.74-1.98-10.48,8.45-14.8,6.59-5.58-2.42-5.98-25.7,6.32-41.45,1.6-2.04,3.46-4.02,5.5-5.86-2.74-.29-5.4-.8-7.89-1.51-19.21-5.51-32.58-24.58-29.48-29.82,2.4-4.04,14.8-.15,15.84-3.36,1.05-3.22-11.27-7.36-10.83-12.04,.57-6.06,22.59-13.63,41.37-6.8,2.43,.89,4.88,2.04,7.27,3.41-.57-2.69-.91-5.38-1-7.96-.7-19.97,13.31-38.58,19.25-37.25,4.59,1.03,4.72,14.03,8.09,14.03s3.51-13,8.1-14.03c5.94-1.33,19.95,17.28,19.25,37.25-.08,2.21-.34,4.5-.76,6.8,2.32-.9,4.68-1.66,7.03-2.25,19.38-4.86,40.84,1.1,41.37,6.8,.44,4.68-11.88,8.82-10.83,12.04,1.04,3.21,13.44-.68,15.84,3.36,2.91,4.93-10.93,22.38-29.48,29.82Z"/><path class="cls-1" d="M389.16,169.1c-2.12,.85-4.32,1.58-6.58,2.19,2.33,2.49,4.38,5.16,6.02,7.89,10.32,17.11,7.12,40.18,1.29,41.91-4.51,1.33-10.95-9.96-13.9-8.32-2.95,1.64,3.26,13.07-.25,16.19-4.54,4.05-25.83-5.39-34.93-23.18-.74-1.44-1.41-2.97-2.01-4.55-1.16,2.65-2.51,5.14-4.03,7.39-11.17,16.56-33.44,23.38-37.47,18.82-3.1-3.53,4.43-14.12,1.7-16.11-2.74-1.98-10.48,8.45-14.8,6.59-5.58-2.42-5.98-25.7,6.32-41.45,1.6-2.04,3.46-4.02,5.5-5.86-2.74-.29-5.4-.8-7.89-1.51-19.21-5.51-32.58-24.58-29.48-29.82,2.4-4.04,14.8-.15,15.84-3.36,1.05-3.22-11.27-7.36-10.83-12.04,.57-6.06,22.59-13.63,41.37-6.8,2.43,.89,4.88,2.04,7.27,3.41-.57-2.69-.91-5.38-1-7.96-.7-19.97,13.31-38.58,19.25-37.25,4.59,1.03,4.72,14.03,8.09,14.03s3.51-13,8.1-14.03c5.94-1.33,19.95,17.28,19.25,37.25-.08,2.21-.34,4.5-.76,6.8,2.32-.9,4.68-1.66,7.03-2.25,19.38-4.86,40.84,1.1,41.37,6.8,.44,4.68-11.88,8.82-10.83,12.04,1.04,3.21,13.44-.68,15.84,3.36,2.91,4.93-10.93,22.38-29.48,29.82Z"/><path class="cls-1" d="M484.16,252.1c-2.12,.85-4.32,1.58-6.58,2.19,2.33,2.49,4.38,5.16,6.02,7.89,10.32,17.11,7.12,40.18,1.29,41.91-4.51,1.33-10.95-9.96-13.9-8.32-2.95,1.64,3.26,13.07-.25,16.19-4.54,4.05-25.83-5.39-34.93-23.18-.74-1.44-1.41-2.97-2.01-4.55-1.16,2.65-2.51,5.14-4.03,7.39-11.17,16.56-33.44,23.38-37.47,18.82-3.1-3.53,4.43-14.12,1.7-16.11-2.74-1.98-10.48,8.45-14.8,6.59-5.58-2.42-5.98-25.7,6.32-41.45,1.6-2.04,3.46-4.02,5.5-5.86-2.74-.29-5.4-.8-7.89-1.51-19.21-5.51-32.58-24.58-29.48-29.82,2.4-4.04,14.8-.15,15.84-3.36,1.05-3.22-11.27-7.36-10.83-12.04,.57-6.06,22.59-13.63,41.37-6.8,2.43,.89,4.88,2.04,7.27,3.41-.57-2.69-.91-5.38-1-7.96-.7-19.97,13.31-38.58,19.25-37.25,4.59,1.03,4.72,14.03,8.09,14.03s3.51-13,8.1-14.03c5.94-1.33,19.95,17.28,19.25,37.25-.08,2.21-.34,4.5-.76,6.8,2.32-.9,4.68-1.66,7.03-2.25,19.38-4.86,40.84,1.1,41.37,6.8,.44,4.68-11.88,8.82-10.83,12.04,1.04,3.21,13.44-.68,15.84,3.36,2.91,4.93-10.93,22.38-29.48,29.82Z"/><path class="cls-1" d="M633.16,290.1c-2.12,.85-4.32,1.58-6.58,2.19,2.33,2.49,4.38,5.16,6.02,7.89,10.32,17.11,7.12,40.18,1.29,41.91-4.51,1.33-10.95-9.96-13.9-8.32-2.95,1.64,3.26,13.07-.25,16.19-4.54,4.05-25.83-5.39-34.93-23.18-.74-1.44-1.41-2.97-2.01-4.55-1.16,2.65-2.51,5.14-4.03,7.39-11.17,16.56-33.44,23.38-37.47,18.82-3.1-3.53,4.43-14.12,1.7-16.11-2.74-1.98-10.48,8.45-14.8,6.59-5.58-2.42-5.98-25.7,6.32-41.45,1.6-2.04,3.46-4.02,5.5-5.86-2.74-.29-5.4-.8-7.89-1.51-19.21-5.51-32.58-24.58-29.48-29.82,2.4-4.04,14.8-.15,15.84-3.36,1.05-3.22-11.27-7.36-10.83-12.04,.57-6.06,22.59-13.63,41.37-6.8,2.43,.89,4.88,2.04,7.27,3.41-.57-2.69-.91-5.38-1-7.96-.7-19.97,13.31-38.58,19.25-37.25,4.59,1.03,4.72,14.03,8.09,14.03s3.51-13,8.1-14.03c5.94-1.33,19.95,17.28,19.25,37.25-.08,2.21-.34,4.5-.76,6.8,2.32-.9,4.68-1.66,7.03-2.25,19.38-4.86,40.84,1.1,41.37,6.8,.44,4.68-11.88,8.82-10.83,12.04,1.04,3.21,13.44-.68,15.84,3.36,2.91,4.93-10.93,22.38-29.48,29.82Z"/><path class="cls-1" d="M452.16,213.1c-2.12,.85-4.32,1.58-6.58,2.19,2.33,2.49,4.38,5.16,6.02,7.89,10.32,17.11,7.12,40.18,1.29,41.91-4.51,1.33-10.95-9.96-13.9-8.32-2.95,1.64,3.26,13.07-.25,16.19-4.54,4.05-25.83-5.39-34.93-23.18-.74-1.44-1.41-2.97-2.01-4.55-1.16,2.65-2.51,5.14-4.03,7.39-11.17,16.56-33.44,23.38-37.47,18.82-3.1-3.53,4.43-14.12,1.7-16.11-2.74-1.98-10.48,8.45-14.8,6.59-5.58-2.42-5.98-25.7,6.32-41.45,1.6-2.04,3.46-4.02,5.5-5.86-2.74-.29-5.4-.8-7.89-1.51-19.21-5.51-32.58-24.58-29.48-29.82,2.4-4.04,14.8-.15,15.84-3.36,1.05-3.22-11.27-7.36-10.83-12.04,.57-6.06,22.59-13.63,41.37-6.8,2.43,.89,4.88,2.04,7.27,3.41-.57-2.69-.91-5.38-1-7.96-.7-19.97,13.31-38.58,19.25-37.25,4.59,1.03,4.72,14.03,8.09,14.03s3.51-13,8.1-14.03c5.94-1.33,19.95,17.28,19.25,37.25-.08,2.21-.34,4.5-.76,6.8,2.32-.9,4.68-1.66,7.03-2.25,19.38-4.86,40.84,1.1,41.37,6.8,.44,4.68-11.88,8.82-10.83,12.04,1.04,3.21,13.44-.68,15.84,3.36,2.91,4.93-10.93,22.38-29.48,29.82Z"/><path class="cls-1" d="M496.16,183.1c-2.12,.85-4.32,1.58-6.58,2.19,2.33,2.49,4.38,5.16,6.02,7.89,10.32,17.11,7.12,40.18,1.29,41.91-4.51,1.33-10.95-9.96-13.9-8.32-2.95,1.64,3.26,13.07-.25,16.19-4.54,4.05-25.83-5.39-34.93-23.18-.74-1.44-1.41-2.97-2.01-4.55-1.16,2.65-2.51,5.14-4.03,7.39-11.17,16.56-33.44,23.38-37.47,18.82-3.1-3.53,4.43-14.12,1.7-16.11-2.74-1.98-10.48,8.45-14.8,6.59-5.58-2.42-5.98-25.7,6.32-41.45,1.6-2.04,3.46-4.02,5.5-5.86-2.74-.29-5.4-.8-7.89-1.51-19.21-5.51-32.58-24.58-29.48-29.82,2.4-4.04,14.8-.15,15.84-3.36,1.05-3.22-11.27-7.36-10.83-12.04,.57-6.06,22.59-13.63,41.37-6.8,2.43,.89,4.88,2.04,7.27,3.41-.57-2.69-.91-5.38-1-7.96-.7-19.97,13.31-38.58,19.25-37.25,4.59,1.03,4.72,14.03,8.09,14.03s3.51-13,8.1-14.03c5.94-1.33,19.95,17.28,19.25,37.25-.08,2.21-.34,4.5-.76,6.8,2.32-.9,4.68-1.66,7.03-2.25,19.38-4.86,40.84,1.1,41.37,6.8,.44,4.68-11.88,8.82-10.83,12.04,1.04,3.21,13.44-.68,15.84,3.36,2.91,4.93-10.93,22.38-29.48,29.82Z"/><path class="cls-1" d="M944.16,648.1c-2.12,.85-4.32,1.58-6.58,2.19,2.33,2.49,4.38,5.16,6.02,7.89,10.32,17.11,7.12,40.18,1.29,41.91-4.51,1.33-10.95-9.96-13.9-8.32-2.95,1.64,3.26,13.07-.25,16.19-4.54,4.05-25.83-5.39-34.93-23.18-.74-1.44-1.41-2.97-2.01-4.55-1.16,2.65-2.51,5.14-4.03,7.39-11.17,16.56-33.44,23.38-37.47,18.82-3.1-3.53,4.43-14.12,1.7-16.11-2.74-1.98-10.48,8.45-14.8,6.59-5.58-2.42-5.98-25.7,6.32-41.45,1.6-2.04,3.46-4.02,5.5-5.86-2.74-.29-5.4-.8-7.89-1.51-19.21-5.51-32.58-24.58-29.48-29.82,2.4-4.04,14.8-.15,15.84-3.36,1.05-3.22-11.27-7.36-10.83-12.04,.57-6.06,22.59-13.63,41.37-6.8,2.43,.89,4.88,2.04,7.27,3.41-.57-2.69-.91-5.38-1-7.96-.7-19.97,13.31-38.58,19.25-37.25,4.59,1.03,4.72,14.03,8.09,14.03s3.51-13,8.1-14.03c5.94-1.33,19.95,17.28,19.25,37.25-.08,2.21-.34,4.5-.76,6.8,2.32-.9,4.68-1.66,7.03-2.25,19.38-4.86,40.84,1.1,41.37,6.8,.44,4.68-11.88,8.82-10.83,12.04,1.04,3.21,13.44-.68,15.84,3.36,2.91,4.93-10.93,22.38-29.48,29.82Z"/></svg>